<?xml version="1.0" encoding="UTF-8" standalone="no"?>
<svg
   xmlns:dc="http://purl.org/dc/elements/1.1/"
   xmlns:cc="http://creativecommons.org/ns#"
   xmlns:rdf="http://www.w3.org/1999/02/22-rdf-syntax-ns#"
   xmlns:svg="http://www.w3.org/2000/svg"
   xmlns="http://www.w3.org/2000/svg"
   xmlns:sodipodi="http://sodipodi.sourceforge.net/DTD/sodipodi-0.dtd"
   xmlns:inkscape="http://www.inkscape.org/namespaces/inkscape"
   version="1.1"
   viewBox="0 0 402 244"
   stroke-miterlimit="10"
   id="svg2"
   inkscape:version="0.48.5 r10040"
   width="100%"
   height="100%"
   sodipodi:docname="1.svg"
   style="fill:none;stroke:none">
  <metadata
     id="metadata57">
    <rdf:RDF>
      <cc:Work
         rdf:about="">
        <dc:format>image/svg+xml</dc:format>
        <dc:type
           rdf:resource="http://purl.org/dc/dcmitype/StillImage" />
        <dc:title></dc:title>
      </cc:Work>
    </rdf:RDF>
  </metadata>
  <defs
     id="defs55" />
  <sodipodi:namedview
     pagecolor="#ffffff"
     bordercolor="#666666"
     borderopacity="1"
     objecttolerance="10"
     gridtolerance="10"
     guidetolerance="10"
     inkscape:pageopacity="0"
     inkscape:pageshadow="2"
     inkscape:window-width="1280"
     inkscape:window-height="938"
     id="namedview53"
     showgrid="false"
     inkscape:zoom="0.92709556"
     inkscape:cx="468.74498"
     inkscape:cy="-85.843043"
     inkscape:window-x="-4"
     inkscape:window-y="-4"
     inkscape:window-maximized="1"
     inkscape:current-layer="svg2" />
  <clipPath
     id="p.0">
    <path
       d="M 0,0 960,0 960,720 0,720 0,0 z"
       clip-rule="nonzero"
       id="path5"
       inkscape:connector-curvature="0" />
  </clipPath>
  <g
     clip-path="url(#p.0)"
     id="g7"
     transform="translate(-10.786375,-10.02862)">
    <path
       d="m 0,0 960,0 0,720 -960,0 z"
       id="path9"
       inkscape:connector-curvature="0"
       style="fill:#000000;fill-opacity:0;fill-rule:nonzero" />
    <path
       d="m 13,13 398.99213,0 0,241.00787 -398.99213,0 z"
       id="path11"
       inkscape:connector-curvature="0"
       style="fill:#000000;fill-opacity:0;fill-rule:nonzero" />
    <path
       d="m 13,13 398.99213,0 0,241.00787 -398.99213,0 z"
       id="path13"
       inkscape:connector-curvature="0"
       style="stroke:#000000;stroke-width:2;stroke-linecap:butt;stroke-linejoin:round" />
    <path
       d="m 23.40625,39.92 0,-13.59375 2.71875,0 3.21875,9.625 q 0.4375,1.34375 0.640625,2.015625 0.234375,-0.75 0.734375,-2.1875 l 3.25,-9.453125 2.421875,0 0,13.59375 -1.734375,0 0,-11.390625 -3.953125,11.390625 -1.625,0 -3.9375,-11.578125 0,11.578125 -1.734375,0 z m 21.822052,-1.21875 q -0.9375,0.796875 -1.796875,1.125 -0.859375,0.3125 -1.84375,0.3125 -1.609375,0 -2.484375,-0.78125 -0.875,-0.796875 -0.875,-2.03125 0,-0.734375 0.328125,-1.328125 0.328125,-0.59375 0.859375,-0.953125 0.53125,-0.359375 1.203125,-0.546875 0.5,-0.140625 1.484375,-0.25 2.03125,-0.25 2.984375,-0.578125 0,-0.34375 0,-0.4375 0,-1.015625 -0.46875,-1.4375 -0.640625,-0.5625 -1.90625,-0.5625 -1.171875,0 -1.734375,0.40625 -0.5625,0.40625 -0.828125,1.46875 l -1.640625,-0.234375 q 0.234375,-1.046875 0.734375,-1.6875 0.515625,-0.640625 1.46875,-0.984375 0.96875,-0.359375 2.25,-0.359375 1.265625,0 2.046875,0.296875 0.78125,0.296875 1.15625,0.75 0.375,0.453125 0.515625,1.140625 0.09375,0.421875 0.09375,1.53125 l 0,2.234375 q 0,2.328125 0.09375,2.953125 0.109375,0.609375 0.4375,1.171875 l -1.75,0 Q 45.290802,39.404375 45.228302,38.70125 z M 45.087677,34.9825 q -0.90625,0.359375 -2.734375,0.625 -1.03125,0.140625 -1.453125,0.328125 -0.421875,0.1875 -0.65625,0.546875 -0.234375,0.359375 -0.234375,0.796875 0,0.671875 0.5,1.125 0.515625,0.4375 1.484375,0.4375 0.96875,0 1.71875,-0.421875 0.75,-0.4375 1.109375,-1.15625 0.265625,-0.578125 0.265625,-1.671875 l 0,-0.609375 z m 4.094467,-6.75 0,-1.90625 1.671875,0 0,1.90625 -1.671875,0 z m 0,11.6875 0,-9.859375 1.671875,0 0,9.859375 -1.671875,0 z m 4.129196,0 0,-9.859375 1.5,0 0,1.40625 q 1.09375,-1.625 3.140625,-1.625 0.890625,0 1.640625,0.328125 0.75,0.3125 1.109375,0.84375 0.375,0.515625 0.53125,1.21875 0.09375,0.46875 0.09375,1.625 l 0,6.0625 -1.671875,0 0,-6 q 0,-1.015625 -0.203125,-1.515625 -0.1875,-0.515625 -0.6875,-0.8125 -0.5,-0.296875 -1.171875,-0.296875 -1.0625,0 -1.84375,0.671875 -0.765625,0.671875 -0.765625,2.578125 l 0,5.375 -1.671875,0 z m 12.969467,0 -3.609375,-13.59375 1.84375,0 2.0625,8.90625 q 0.34375,1.40625 0.578125,2.78125 0.515625,-2.171875 0.609375,-2.515625 l 2.59375,-9.171875 2.171875,0 1.953125,6.875 q 0.734375,2.5625 1.046875,4.8125 0.265625,-1.28125 0.6875,-2.953125 l 2.125,-8.734375 1.8125,0 -3.734375,13.59375 -1.734375,0 -2.859375,-10.359375 q -0.359375,-1.296875 -0.421875,-1.59375 -0.21875,0.9375 -0.40625,1.59375 L 68.108932,39.92 l -1.828125,0 z m 15.030533,-11.6875 0,-1.90625 1.671875,0 0,1.90625 -1.671875,0 z m 0,11.6875 0,-9.859375 1.671875,0 0,9.859375 -1.671875,0 z m 4.129196,0 0,-9.859375 1.5,0 0,1.40625 q 1.09375,-1.625 3.140625,-1.625 0.890625,0 1.640625,0.328125 0.75,0.3125 1.109375,0.84375 0.375,0.515625 0.53125,1.21875 0.09375,0.46875 0.09375,1.625 l 0,6.0625 -1.671875,0 0,-6 q 0,-1.015625 -0.203125,-1.515625 -0.1875,-0.515625 -0.6875,-0.8125 -0.5,-0.296875 -1.171875,-0.296875 -1.0625,0 -1.84375,0.671875 -0.765625,0.671875 -0.765625,2.578125 l 0,5.375 -1.671875,0 z m 16.766344,0 0,-1.25 q -0.9375,1.46875 -2.750002,1.46875 -1.171875,0 -2.171875,-0.640625 -0.984375,-0.65625 -1.53125,-1.8125 -0.53125,-1.171875 -0.53125,-2.6875 0,-1.46875 0.484375,-2.671875 0.5,-1.203125 1.46875,-1.84375 0.984375,-0.640625 2.203125,-0.640625 0.890627,0 1.578127,0.375 0.70312,0.375 1.14062,0.984375 l 0,-4.875 1.65625,0 0,13.59375 -1.54687,0 z m -5.281252,-4.921875 q 0,1.890625 0.796875,2.828125 0.8125,0.9375 1.890625,0.9375 1.093752,0 1.859372,-0.890625 0.76563,-0.890625 0.76563,-2.734375 0,-2.015625 -0.78125,-2.953125 -0.78125,-0.953125 -1.921877,-0.953125 -1.109375,0 -1.859375,0.90625 -0.75,0.90625 -0.75,2.859375 z m 8.641342,0 q 0,-2.734375 1.53125,-4.0625 1.26563,-1.09375 3.09375,-1.09375 2.03125,0 3.3125,1.34375 1.29688,1.328125 1.29688,3.671875 0,1.90625 -0.57813,3 -0.5625,1.078125 -1.65625,1.6875 -1.07812,0.59375 -2.375,0.59375 -2.0625,0 -3.34375,-1.328125 -1.28125,-1.328125 -1.28125,-3.8125 z m 1.71875,0 q 0,1.890625 0.82813,2.828125 0.82812,0.9375 2.07812,0.9375 1.25,0 2.0625,-0.9375 0.82813,-0.953125 0.82813,-2.890625 0,-1.828125 -0.82813,-2.765625 -0.82812,-0.9375 -2.0625,-0.9375 -1.25,0 -2.07812,0.9375 -0.82813,0.9375 -0.82813,2.828125 z m 11.11009,4.921875 -3.01562,-9.859375 1.71875,0 1.5625,5.6875 0.59375,2.125 q 0.0312,-0.15625 0.5,-2.03125 l 1.57812,-5.78125 1.71875,0 1.46875,5.71875 0.48438,1.890625 0.57812,-1.90625 1.6875,-5.703125 1.625,0 -3.07812,9.859375 -1.73438,0 -1.57812,-5.90625 -0.375,-1.671875 -2,7.578125 -1.73438,0 z"
       id="path15"
       inkscape:connector-curvature="0"
       style="fill:#000000;fill-rule:nonzero" />
    <path
       d="m 38,55 354.01575,0 0,188 L 38,243 z"
       id="path17"
       inkscape:connector-curvature="0"
       style="fill:#000000;fill-opacity:0;fill-rule:nonzero" />
    <path
       d="m 38,55 354.01575,0 0,188 L 38,243 z"
       id="path19"
       inkscape:connector-curvature="0"
       style="stroke:#38761d;stroke-width:2;stroke-linecap:butt;stroke-linejoin:round" />
    <path
       d="m 58.171875,77.15437 1.796875,0.453125 q -0.5625,2.21875 -2.03125,3.390625 -1.46875,1.15625 -3.59375,1.15625 -2.203125,0 -3.578125,-0.890625 -1.375,-0.90625 -2.09375,-2.59375 -0.71875,-1.703125 -0.71875,-3.65625 0,-2.125 0.796875,-3.703125 0.8125,-1.578125 2.3125,-2.390625 1.5,-0.828125 3.296875,-0.828125 2.046875,0 3.4375,1.046875 1.390625,1.03125 1.9375,2.90625 L 57.96875,72.46687 q -0.46875,-1.484375 -1.375,-2.15625 -0.90625,-0.6875 -2.265625,-0.6875 -1.5625,0 -2.625,0.75 -1.046875,0.75 -1.484375,2.03125 -0.421875,1.265625 -0.421875,2.609375 0,1.734375 0.5,3.03125 0.515625,1.28125 1.578125,1.921875 1.078125,0.640625 2.3125,0.640625 1.515625,0 2.5625,-0.859375 1.046875,-0.875 1.421875,-2.59375 z m 3.160446,0.390625 1.6875,-0.140625 q 0.125,1.015625 0.5625,1.671875 0.4375,0.65625 1.359375,1.0625 0.9375,0.40625 2.09375,0.40625 1.03125,0 1.8125,-0.3125 0.796875,-0.3125 1.1875,-0.84375 0.390625,-0.53125 0.390625,-1.15625 0,-0.640625 -0.375,-1.109375 -0.375,-0.484375 -1.234375,-0.8125 -0.546875,-0.21875 -2.421875,-0.65625 -1.875,-0.453125 -2.625,-0.859375 -0.96875,-0.515625 -1.453125,-1.265625 -0.46875,-0.75 -0.46875,-1.6875 0,-1.03125 0.578125,-1.921875 0.59375,-0.90625 1.703125,-1.359375 1.125,-0.46875 2.5,-0.46875 1.515625,0 2.671875,0.484375 1.15625,0.484375 1.765625,1.4375 0.625,0.9375 0.671875,2.140625 l -1.71875,0.125 q -0.140625,-1.28125 -0.953125,-1.9375 -0.796875,-0.671875 -2.359375,-0.671875 -1.625,0 -2.375,0.609375 -0.75,0.59375 -0.75,1.4375 0,0.734375 0.53125,1.203125 0.515625,0.46875 2.703125,0.96875 2.203125,0.5 3.015625,0.875 1.1875,0.546875 1.75,1.390625 0.578125,0.828125 0.578125,1.921875 0,1.09375 -0.625,2.0625 -0.625,0.953125 -1.796875,1.484375 -1.15625,0.53125 -2.609375,0.53125 -1.84375,0 -3.09375,-0.53125 -1.25,-0.546875 -1.96875,-1.625 -0.703125,-1.078125 -0.734375,-2.453125 z m 19.271698,0.765625 1.640625,0.21875 q -0.265625,1.6875 -1.375,2.65625 -1.109375,0.953125 -2.734375,0.953125 -2.015625,0 -3.25,-1.3125 -1.21875,-1.328125 -1.21875,-3.796875 0,-1.59375 0.515625,-2.78125 0.53125,-1.203125 1.609375,-1.796875 1.09375,-0.609375 2.359375,-0.609375 1.609375,0 2.625,0.8125 1.015625,0.8125 1.3125,2.3125 l -1.625,0.25 q -0.234375,-1 -0.828125,-1.5 -0.59375,-0.5 -1.421875,-0.5 -1.265625,0 -2.0625,0.90625 -0.78125,0.90625 -0.78125,2.859375 0,1.984375 0.765625,2.890625 0.765625,0.890625 1.984375,0.890625 0.984375,0 1.640625,-0.59375 0.65625,-0.609375 0.84375,-1.859375 z m 9.640625,0.4375 1.71875,0.21875 q -0.40625,1.5 -1.515625,2.34375 -1.09375,0.828125 -2.8125,0.828125 -2.15625,0 -3.421875,-1.328125 -1.265625,-1.328125 -1.265625,-3.734375 0,-2.484375 1.265625,-3.859375 1.28125,-1.375 3.328125,-1.375 1.984375,0 3.234375,1.34375 1.25,1.34375 1.25,3.796875 0,0.140625 -0.01563,0.4375 l -7.34375,0 q 0.09375,1.625 0.921875,2.484375 0.828125,0.859375 2.0625,0.859375 0.90625,0 1.546875,-0.46875 0.65625,-0.484375 1.046875,-1.546875 z m -5.484375,-2.703125 5.5,0 q -0.109375,-1.234375 -0.625,-1.859375 -0.796875,-0.96875 -2.078125,-0.96875 -1.140625,0 -1.9375,0.78125 -0.78125,0.765625 -0.859375,2.046875 z m 9.110092,5.875 0,-9.859375 1.5,0 0,1.40625 q 1.09375,-1.625 3.140625,-1.625 0.890625,0 1.640624,0.328125 0.75,0.3125 1.10938,0.84375 0.375,0.515625 0.53125,1.21875 0.0937,0.46875 0.0937,1.625 l 0,6.0625 -1.67188,0 0,-6 q 0,-1.015625 -0.20312,-1.515625 -0.187504,-0.515625 -0.687504,-0.8125 -0.5,-0.296875 -1.171875,-0.296875 -1.0625,0 -1.84375,0.671875 -0.765625,0.671875 -0.765625,2.578125 l 0,5.375 -1.671875,0 z m 17.125719,-3.171875 1.71875,0.21875 q -0.40625,1.5 -1.51563,2.34375 -1.09375,0.828125 -2.8125,0.828125 -2.15625,0 -3.42187,-1.328125 -1.26563,-1.328125 -1.26563,-3.734375 0,-2.484375 1.26563,-3.859375 1.28125,-1.375 3.32812,-1.375 1.98438,0 3.23438,1.34375 1.25,1.34375 1.25,3.796875 0,0.140625 -0.0156,0.4375 l -7.34375,0 q 0.0937,1.625 0.92188,2.484375 0.82812,0.859375 2.0625,0.859375 0.90625,0 1.54687,-0.46875 0.65625,-0.484375 1.04688,-1.546875 z m -5.48438,-2.703125 5.5,0 q -0.10937,-1.234375 -0.625,-1.859375 -0.79687,-0.96875 -2.07812,-0.96875 -1.14063,0 -1.9375,0.78125 -0.78125,0.765625 -0.85938,2.046875 z"
       id="path21"
       inkscape:connector-curvature="0"
       style="fill:#38761d;fill-rule:nonzero" />
    <path
       d="m 56.496063,100 147.999997,0 0,128 -147.999997,0 z"
       id="path23"
       inkscape:connector-curvature="0"
       style="fill:#000000;fill-opacity:0;fill-rule:nonzero" />
    <path
       d="m 56.496063,100 147.999997,0 0,128 -147.999997,0 z"
       id="path25"
       inkscape:connector-curvature="0"
       style="stroke:#1155cc;stroke-width:2;stroke-linecap:butt;stroke-linejoin:round" />
    <path
       d="m 76.66794,122.15437 1.796875,0.45313 q -0.5625,2.21875 -2.03125,3.39062 -1.46875,1.15625 -3.59375,1.15625 -2.203125,0 -3.578125,-0.89062 -1.375,-0.90625 -2.09375,-2.59375 -0.71875,-1.70313 -0.71875,-3.65625 0,-2.125 0.796875,-3.70313 0.8125,-1.57812 2.3125,-2.39062 1.5,-0.82813 3.296875,-0.82813 2.046875,0 3.4375,1.04688 1.390625,1.03125 1.9375,2.90625 l -1.765625,0.42187 q -0.46875,-1.48437 -1.375,-2.15625 -0.90625,-0.6875 -2.265625,-0.6875 -1.5625,0 -2.625,0.75 -1.046875,0.75 -1.484375,2.03125 -0.421875,1.26563 -0.421875,2.60938 0,1.73437 0.5,3.03125 0.515625,1.28125 1.578125,1.92187 1.078125,0.64063 2.3125,0.64063 1.515625,0 2.5625,-0.85938 1.046875,-0.875 1.421875,-2.59375 z m 10.129196,-0.5625 0,-1.60937 5.765625,0 0,5.04687 q -1.328125,1.0625 -2.75,1.59375 -1.40625,0.53125 -2.890625,0.53125 -2,0 -3.640625,-0.85937 -1.625,-0.85938 -2.46875,-2.48438 -0.828125,-1.625 -0.828125,-3.625 0,-1.98437 0.828125,-3.70312 0.828125,-1.71875 2.390625,-2.54688 1.5625,-0.84375 3.59375,-0.84375 1.46875,0 2.65625,0.48438 1.203125,0.46875 1.875,1.32812 0.671875,0.84375 1.03125,2.21875 l -1.625,0.4375 q -0.3125,-1.03125 -0.765625,-1.625 -0.453125,-0.59375 -1.296875,-0.95312 -0.84375,-0.35938 -1.875,-0.35938 -1.234375,0 -2.140625,0.375 -0.890625,0.375 -1.453125,1 -0.546875,0.60938 -0.84375,1.34375 -0.53125,1.25 -0.53125,2.73438 0,1.8125 0.625,3.04687 0.640625,1.21875 1.828125,1.8125 1.203125,0.59375 2.546875,0.59375 1.171875,0 2.28125,-0.45312 1.109375,-0.45313 1.6875,-0.95313 l 0,-2.53125 -4,0 z m 7.917679,5.32813 0,-9.85938 1.5,0 0,1.5 q 0.578125,-1.04687 1.0625,-1.375 0.484375,-0.34375 1.078125,-0.34375 0.84375,0 1.71875,0.54688 l -0.578125,1.54687 q -0.609375,-0.35937 -1.234375,-0.35937 -0.546875,0 -0.984375,0.32812 -0.421875,0.32813 -0.609375,0.90625 -0.28125,0.89063 -0.28125,1.95313 l 0,5.15625 -1.671875,0 z m 12.665805,-1.21875 q -0.9375,0.79687 -1.79688,1.125 -0.85937,0.3125 -1.84375,0.3125 -1.60937,0 -2.48437,-0.78125 -0.875,-0.79688 -0.875,-2.03125 0,-0.73438 0.32812,-1.32813 0.32813,-0.59375 0.85938,-0.95312 0.53125,-0.35938 1.20312,-0.54688 0.5,-0.14062 1.48438,-0.25 2.03125,-0.25 2.98437,-0.57812 0,-0.34375 0,-0.4375 0,-1.01563 -0.46875,-1.4375 -0.64062,-0.5625 -1.90625,-0.5625 -1.17187,0 -1.73437,0.40625 -0.5625,0.40625 -0.82813,1.46875 l -1.64062,-0.23438 q 0.23437,-1.04687 0.73437,-1.6875 0.51563,-0.64062 1.46875,-0.98437 0.96875,-0.35938 2.25,-0.35938 1.26563,0 2.04688,0.29688 0.78125,0.29687 1.15625,0.75 0.375,0.45312 0.51562,1.14062 0.0937,0.42188 0.0937,1.53125 l 0,2.23438 q 0,2.32812 0.0937,2.95312 0.10938,0.60938 0.4375,1.17188 l -1.75,0 q -0.26562,-0.51563 -0.32812,-1.21875 z m -0.14063,-3.71875 q -0.90625,0.35937 -2.73437,0.625 -1.03125,0.14062 -1.45313,0.32812 -0.42187,0.1875 -0.65625,0.54688 -0.23437,0.35937 -0.23437,0.79687 0,0.67188 0.5,1.125 0.51562,0.4375 1.48437,0.4375 0.96875,0 1.71875,-0.42187 0.75,-0.4375 1.10938,-1.15625 0.26562,-0.57813 0.26562,-1.67188 l 0,-0.60937 z m 4.07884,8.71874 0,-13.64062 1.53125,0 0,1.28125 q 0.53125,-0.75 1.20313,-1.125 0.6875,-0.375 1.64062,-0.375 1.26563,0 2.23438,0.65625 0.96875,0.64063 1.45312,1.82813 0.5,1.1875 0.5,2.59375 0,1.51562 -0.54687,2.73437 -0.54688,1.20313 -1.57813,1.84375 -1.03125,0.64063 -2.17187,0.64063 -0.84375,0 -1.51563,-0.34375 -0.65625,-0.35938 -1.07812,-0.89063 l 0,4.79687 -1.67188,0 z m 1.51563,-8.65624 q 0,1.90625 0.76562,2.8125 0.78125,0.90625 1.875,0.90625 1.10938,0 1.89063,-0.9375 0.79687,-0.9375 0.79687,-2.92188 0,-1.875 -0.78125,-2.8125 -0.76562,-0.9375 -1.84375,-0.9375 -1.0625,0 -1.89062,1 -0.8125,1 -0.8125,2.89063 z m 8.86009,4.875 0,-13.59375 1.67188,0 0,4.875 q 1.17187,-1.35938 2.95312,-1.35938 1.09375,0 1.89063,0.4375 0.8125,0.42188 1.15625,1.1875 0.35937,0.76563 0.35937,2.20313 l 0,6.25 -1.67187,0 0,-6.25 q 0,-1.25 -0.54688,-1.8125 -0.54687,-0.57813 -1.53125,-0.57813 -0.75,0 -1.40625,0.39063 -0.64062,0.375 -0.92187,1.04687 -0.28125,0.65625 -0.28125,1.8125 l 0,5.39063 -1.67188,0 z m 10.04759,-6.625 q 0,-3.39063 1.8125,-5.29688 1.82813,-1.92187 4.70313,-1.92187 1.875,0 3.39062,0.90625 1.51563,0.89062 2.29688,2.5 0.79687,1.60937 0.79687,3.65625 0,2.0625 -0.84375,3.70312 -0.82812,1.625 -2.35937,2.46875 -1.53125,0.84375 -3.29688,0.84375 -1.92187,0 -3.4375,-0.92187 -1.5,-0.9375 -2.28125,-2.53125 -0.78125,-1.60938 -0.78125,-3.40625 z m 1.85938,0.0312 q 0,2.45312 1.3125,3.875 1.32812,1.40625 3.3125,1.40625 2.03125,0 3.34375,-1.42188 1.3125,-1.4375 1.3125,-4.0625 0,-1.65625 -0.5625,-2.89062 -0.54688,-1.23438 -1.64063,-1.92188 -1.07812,-0.6875 -2.42187,-0.6875 -1.90625,0 -3.28125,1.3125 -1.375,1.3125 -1.375,4.39063 z m 14.52705,6.59375 -1.54687,0 0,-13.59375 1.65625,0 0,4.84375 q 1.0625,-1.32813 2.70312,-1.32813 0.90625,0 1.71875,0.375 0.8125,0.35938 1.32813,1.03125 0.53125,0.65625 0.82812,1.59375 0.29688,0.9375 0.29688,2 0,2.53125 -1.25,3.92188 -1.25,1.375 -3,1.375 -1.75,0 -2.73438,-1.45313 l 0,1.23438 z m -0.0156,-5 q 0,1.76562 0.46875,2.5625 0.79687,1.28125 2.14062,1.28125 1.09375,0 1.89063,-0.9375 0.79687,-0.95313 0.79687,-2.84375 0,-1.92188 -0.76562,-2.84375 -0.76563,-0.92188 -1.84375,-0.92188 -1.09375,0 -1.89063,0.95313 -0.79687,0.95312 -0.79687,2.75 z m 8.84446,-6.65625 0,-1.9375 1.65625,0 0,1.9375 -1.65625,0 z m -2.125,15.48437 0.3125,-1.42188 q 0.5,0.125 0.79688,0.125 0.51562,0 0.76562,-0.34375 0.25,-0.32812 0.25,-1.68749 l 0,-10.35938 1.65625,0 0,10.39063 q 0,1.82812 -0.46875,2.54687 -0.59375,0.92187 -2,0.92187 -0.67187,0 -1.3125,-0.17187 z m 13.01982,-7 1.71875,0.21875 q -0.40625,1.5 -1.51562,2.34375 -1.09375,0.82813 -2.8125,0.82813 -2.15625,0 -3.42188,-1.32813 -1.26562,-1.32812 -1.26562,-3.73437 0,-2.48438 1.26562,-3.85938 1.28125,-1.375 3.32813,-1.375 1.98437,0 3.23437,1.34375 1.25,1.34375 1.25,3.79688 0,0.14062 -0.0156,0.4375 l -7.34375,0 q 0.0937,1.625 0.92187,2.48437 0.82813,0.85938 2.0625,0.85938 0.90625,0 1.54688,-0.46875 0.65625,-0.48438 1.04687,-1.54688 z m -5.48437,-2.70312 5.5,0 q -0.10938,-1.23438 -0.625,-1.85938 -0.79688,-0.96875 -2.07813,-0.96875 -1.14062,0 -1.9375,0.78125 -0.78125,0.76563 -0.85937,2.04688 z m 15.54759,2.26562 1.64063,0.21875 q -0.26563,1.6875 -1.375,2.65625 -1.10938,0.95313 -2.73438,0.95313 -2.01562,0 -3.25,-1.3125 -1.21875,-1.32813 -1.21875,-3.79688 0,-1.59375 0.51563,-2.78125 0.53125,-1.20312 1.60937,-1.79687 1.09375,-0.60938 2.35938,-0.60938 1.60937,0 2.625,0.8125 1.01562,0.8125 1.3125,2.3125 l -1.625,0.25 q -0.23438,-1 -0.82813,-1.5 -0.59375,-0.5 -1.42187,-0.5 -1.26563,0 -2.0625,0.90625 -0.78125,0.90625 -0.78125,2.85938 0,1.98437 0.76562,2.89062 0.76563,0.89063 1.98438,0.89063 0.98437,0 1.64062,-0.59375 0.65625,-0.60938 0.84375,-1.85938 z m 6.54688,2.10938 0.23437,1.48437 q -0.70312,0.14063 -1.26562,0.14063 -0.90625,0 -1.40625,-0.28125 -0.5,-0.29688 -0.70313,-0.75 -0.20312,-0.46875 -0.20312,-1.98438 l 0,-5.65625 -1.23438,0 0,-1.3125 1.23438,0 0,-2.4375 1.65625,-1 0,3.4375 1.6875,0 0,1.3125 -1.6875,0 0,5.75 q 0,0.71875 0.0781,0.92188 0.0937,0.20312 0.29688,0.32812 0.20312,0.125 0.57812,0.125 0.26563,0 0.73438,-0.0781 z"
       id="path27"
       inkscape:connector-curvature="0"
       style="fill:#1155cc;fill-rule:nonzero" />
    <path
       d="m 231,100 148,0 0,48 -148,0 z"
       id="path29"
       inkscape:connector-curvature="0"
       style="fill:#000000;fill-opacity:0;fill-rule:nonzero" />
    <path
       d="m 231,100 148,0 0,48 -148,0 z"
       id="path31"
       inkscape:connector-curvature="0"
       style="stroke:#000000;stroke-width:1;stroke-linecap:butt;stroke-linejoin:round;stroke-dasharray:4, 3" />
    <path
       d="m 251.17188,122.15437 1.79687,0.45313 q -0.5625,2.21875 -2.03125,3.39062 -1.46875,1.15625 -3.59375,1.15625 -2.20312,0 -3.57812,-0.89062 -1.375,-0.90625 -2.09375,-2.59375 -0.71875,-1.70313 -0.71875,-3.65625 0,-2.125 0.79687,-3.70313 0.8125,-1.57812 2.3125,-2.39062 1.5,-0.82813 3.29688,-0.82813 2.04687,0 3.4375,1.04688 1.39062,1.03125 1.9375,2.90625 l -1.76563,0.42187 q -0.46875,-1.48437 -1.375,-2.15625 -0.90625,-0.6875 -2.26562,-0.6875 -1.5625,0 -2.625,0.75 -1.04688,0.75 -1.48438,2.03125 -0.42187,1.26563 -0.42187,2.60938 0,1.73437 0.5,3.03125 0.51562,1.28125 1.57812,1.92187 1.07813,0.64063 2.3125,0.64063 1.51563,0 2.5625,-0.85938 1.04688,-0.875 1.42188,-2.59375 z m 12.69171,-8.82812 1.79688,0 0,7.84375 q 0,2.0625 -0.46875,3.26562 -0.45313,1.20313 -1.67188,1.96875 -1.20312,0.75 -3.17187,0.75 -1.90625,0 -3.125,-0.65625 -1.21875,-0.65625 -1.73439,-1.90625 -0.51563,-1.25 -0.51563,-3.42187 l 0,-7.84375 1.79689,0 0,7.84375 q 0,1.76562 0.32813,2.60937 0.32812,0.84375 1.125,1.29688 0.8125,0.45312 1.96875,0.45312 1.98437,0 2.82812,-0.89062 0.84375,-0.90625 0.84375,-3.46875 l 0,-7.84375 z m 4.33231,13.59375 0,-9.85938 1.5,0 0,1.40625 q 1.09375,-1.625 3.14062,-1.625 0.89063,0 1.64063,0.32813 0.75,0.3125 1.10937,0.84375 0.375,0.51562 0.53125,1.21875 0.0937,0.46875 0.0937,1.625 l 0,6.0625 -1.67187,0 0,-6 q 0,-1.01563 -0.20313,-1.51563 -0.1875,-0.51562 -0.6875,-0.8125 -0.5,-0.29687 -1.17187,-0.29687 -1.0625,0 -1.84375,0.67187 -0.76563,0.67188 -0.76563,2.57813 l 0,5.375 -1.67187,0 z m 16.76632,0 0,-1.25 q -0.9375,1.46875 -2.75,1.46875 -1.17187,0 -2.17187,-0.64063 -0.98438,-0.65625 -1.53125,-1.8125 -0.53125,-1.17187 -0.53125,-2.6875 0,-1.46875 0.48437,-2.67187 0.5,-1.20313 1.46875,-1.84375 0.98438,-0.64063 2.20313,-0.64063 0.89062,0 1.57812,0.375 0.70313,0.375 1.14063,0.98438 l 0,-4.875 1.65625,0 0,13.59375 -1.54688,0 z m -5.28125,-4.92188 q 0,1.89063 0.79688,2.82813 0.8125,0.9375 1.89062,0.9375 1.09375,0 1.85938,-0.89063 0.76562,-0.89062 0.76562,-2.73437 0,-2.01563 -0.78125,-2.95313 -0.78125,-0.95312 -1.92187,-0.95312 -1.10938,0 -1.85938,0.90625 -0.75,0.90625 -0.75,2.85937 z m 8.64136,0 q 0,-2.73437 1.53125,-4.0625 1.26563,-1.09375 3.09375,-1.09375 2.03125,0 3.3125,1.34375 1.29688,1.32813 1.29688,3.67188 0,1.90625 -0.57813,3 -0.5625,1.07812 -1.65625,1.6875 -1.07812,0.59375 -2.375,0.59375 -2.0625,0 -3.34375,-1.32813 -1.28125,-1.32812 -1.28125,-3.8125 z m 1.71875,0 q 0,1.89063 0.82813,2.82813 0.82812,0.9375 2.07812,0.9375 1.25,0 2.0625,-0.9375 0.82813,-0.95313 0.82813,-2.89063 0,-1.82812 -0.82813,-2.76562 -0.82812,-0.9375 -2.0625,-0.9375 -1.25,0 -2.07812,0.9375 -0.82813,0.9375 -0.82813,2.82812 z m 9.53198,4.92188 0,-13.59375 6.03125,0 q 1.8125,0 2.75,0.35937 0.95313,0.35938 1.51563,1.29688 0.5625,0.92187 0.5625,2.04687 0,1.45313 -0.9375,2.45313 -0.92188,0.98437 -2.89063,1.25 0.71875,0.34375 1.09375,0.67187 0.78125,0.73438 1.48438,1.8125 l 2.375,3.70313 -2.26563,0 -1.79687,-2.82813 q -0.79688,-1.21875 -1.3125,-1.875 -0.5,-0.65625 -0.90625,-0.90625 -0.40625,-0.26562 -0.8125,-0.35937 -0.3125,-0.0781 -1.01563,-0.0781 l -2.07812,0 0,6.04688 -1.79688,0 z m 1.79688,-7.59375 3.85937,0 q 1.23438,0 1.92188,-0.25 0.70312,-0.26563 1.0625,-0.82813 0.375,-0.5625 0.375,-1.21875 0,-0.96875 -0.70313,-1.57812 -0.70312,-0.625 -2.21875,-0.625 l -4.29687,0 0,4.5 z m 18.17605,4.42187 1.71875,0.21875 q -0.40625,1.5 -1.51562,2.34375 -1.09375,0.82813 -2.8125,0.82813 -2.15625,0 -3.42188,-1.32813 -1.26562,-1.32812 -1.26562,-3.73437 0,-2.48438 1.26562,-3.85938 1.28125,-1.375 3.32813,-1.375 1.98437,0 3.23437,1.34375 1.25,1.34375 1.25,3.79688 0,0.14062 -0.0156,0.4375 l -7.34375,0 q 0.0937,1.625 0.92187,2.48437 0.82813,0.85938 2.0625,0.85938 0.90625,0 1.54688,-0.46875 0.65625,-0.48438 1.04687,-1.54688 z m -5.48437,-2.70312 5.5,0 q -0.10938,-1.23438 -0.625,-1.85938 -0.79688,-0.96875 -2.07813,-0.96875 -1.14062,0 -1.9375,0.78125 -0.78125,0.76563 -0.85937,2.04688 z m 15.5007,5.875 0,-1.25 q -0.9375,1.46875 -2.75,1.46875 -1.17187,0 -2.17187,-0.64063 -0.98438,-0.65625 -1.53125,-1.8125 -0.53125,-1.17187 -0.53125,-2.6875 0,-1.46875 0.48437,-2.67187 0.5,-1.20313 1.46875,-1.84375 0.98438,-0.64063 2.20313,-0.64063 0.89062,0 1.57812,0.375 0.70313,0.375 1.14063,0.98438 l 0,-4.875 1.65625,0 0,13.59375 -1.54688,0 z m -5.28125,-4.92188 q 0,1.89063 0.79688,2.82813 0.8125,0.9375 1.89062,0.9375 1.09375,0 1.85938,-0.89063 0.76562,-0.89062 0.76562,-2.73437 0,-2.01563 -0.78125,-2.95313 -0.78125,-0.95312 -1.92187,-0.95312 -1.10938,0 -1.85938,0.90625 -0.75,0.90625 -0.75,2.85937 z m 8.64136,0 q 0,-2.73437 1.53125,-4.0625 1.26562,-1.09375 3.09375,-1.09375 2.03125,0 3.3125,1.34375 1.29687,1.32813 1.29687,3.67188 0,1.90625 -0.57812,3 -0.5625,1.07812 -1.65625,1.6875 -1.07813,0.59375 -2.375,0.59375 -2.0625,0 -3.34375,-1.32813 -1.28125,-1.32812 -1.28125,-3.8125 z m 1.71875,0 q 0,1.89063 0.82812,2.82813 0.82813,0.9375 2.07813,0.9375 1.25,0 2.0625,-0.9375 0.82812,-0.95313 0.82812,-2.89063 0,-1.82812 -0.82812,-2.76562 -0.82813,-0.9375 -2.0625,-0.9375 -1.25,0 -2.07813,0.9375 -0.82812,0.9375 -0.82812,2.82812 z"
       id="path33"
       inkscape:connector-curvature="0"
       style="fill:#000000;fill-rule:nonzero" />
    <path
       d="m 231,180 148,0 0,48 -148,0 z"
       id="path35"
       inkscape:connector-curvature="0"
       style="fill:#000000;fill-opacity:0;fill-rule:nonzero" />
    <path
       d="m 231,180 148,0 0,48 -148,0 z"
       id="path37"
       inkscape:connector-curvature="0"
       style="stroke:#000000;stroke-width:1;stroke-linecap:butt;stroke-linejoin:round;stroke-dasharray:4, 3" />
    <path
       d="m 251.17188,202.15437 1.79687,0.45312 q -0.5625,2.21875 -2.03125,3.39063 -1.46875,1.15625 -3.59375,1.15625 -2.20312,0 -3.57812,-0.89063 -1.375,-0.90625 -2.09375,-2.59375 -0.71875,-1.70312 -0.71875,-3.65625 0,-2.125 0.79687,-3.70312 0.8125,-1.57813 2.3125,-2.39063 1.5,-0.82812 3.29688,-0.82812 2.04687,0 3.4375,1.04687 1.39062,1.03125 1.9375,2.90625 l -1.76563,0.42188 q -0.46875,-1.48438 -1.375,-2.15625 -0.90625,-0.6875 -2.26562,-0.6875 -1.5625,0 -2.625,0.75 -1.04688,0.75 -1.48438,2.03125 -0.42187,1.26562 -0.42187,2.60937 0,1.73438 0.5,3.03125 0.51562,1.28125 1.57812,1.92188 1.07813,0.64062 2.3125,0.64062 1.51563,0 2.5625,-0.85937 1.04688,-0.875 1.42188,-2.59375 z m 2.3792,4.76562 5.26564,-7.09375 -4.64064,-6.5 2.14064,0 2.46875,3.48438 q 0.78125,1.07812 1.09375,1.67187 0.45312,-0.75 1.07812,-1.54687 l 2.73438,-3.60938 1.96875,0 -4.78125,6.40625 5.14062,7.1875 -2.21875,0 -3.42187,-4.85937 q -0.29688,-0.40625 -0.59375,-0.90625 -0.45313,0.75 -0.65625,1.03125 l -3.40627,4.73437 -2.17187,0 z m 13.77168,0 0,-13.59375 2.71875,0 3.21875,9.625 q 0.4375,1.34375 0.64062,2.01563 0.23438,-0.75 0.73438,-2.1875 l 3.25,-9.45313 2.42187,0 0,13.59375 -1.73437,0 0,-11.39062 -3.95313,11.39062 -1.625,0 -3.9375,-11.57812 0,11.57812 -1.73437,0 z m 15.52521,0 0,-13.59375 1.79687,0 0,11.98438 6.70313,0 0,1.60937 -8.5,0 z m 10.45382,0 0,-13.59375 5.125,0 q 1.35938,0 2.07813,0.125 1,0.17188 1.67187,0.64063 0.67188,0.46875 1.07813,1.3125 0.42187,0.84375 0.42187,1.84375 0,1.73437 -1.10937,2.9375 -1.09375,1.20312 -3.98438,1.20312 l -3.48437,0 0,5.53125 -1.79688,0 z m 1.79688,-7.14062 3.51562,0 q 1.75,0 2.46875,-0.64063 0.73438,-0.65625 0.73438,-1.82812 0,-0.85938 -0.4375,-1.46875 -0.42188,-0.60938 -1.125,-0.79688 -0.45313,-0.125 -1.67188,-0.125 l -3.48437,0 0,4.85938 z m 16.86545,5.92187 q -0.9375,0.79688 -1.79688,1.125 -0.85937,0.3125 -1.84375,0.3125 -1.60937,0 -2.48437,-0.78125 -0.875,-0.79687 -0.875,-2.03125 0,-0.73437 0.32812,-1.32812 0.32813,-0.59375 0.85938,-0.95313 0.53125,-0.35937 1.20312,-0.54687 0.5,-0.14063 1.48438,-0.25 2.03125,-0.25 2.98437,-0.57813 0,-0.34375 0,-0.4375 0,-1.01562 -0.46875,-1.4375 -0.64062,-0.5625 -1.90625,-0.5625 -1.17187,0 -1.73437,0.40625 -0.5625,0.40625 -0.82813,1.46875 l -1.64062,-0.23437 q 0.23437,-1.04688 0.73437,-1.6875 0.51563,-0.64063 1.46875,-0.98438 0.96875,-0.35937 2.25,-0.35937 1.26563,0 2.04688,0.29687 0.78125,0.29688 1.15625,0.75 0.375,0.45313 0.51562,1.14063 0.0937,0.42187 0.0937,1.53125 l 0,2.23437 q 0,2.32813 0.0937,2.95313 0.10938,0.60937 0.4375,1.17187 l -1.75,0 q -0.26562,-0.51562 -0.32812,-1.21875 z m -0.14063,-3.71875 q -0.90625,0.35938 -2.73437,0.625 -1.03125,0.14063 -1.45313,0.32813 -0.42187,0.1875 -0.65625,0.54687 -0.23437,0.35938 -0.23437,0.79688 0,0.67187 0.5,1.125 0.51562,0.4375 1.48437,0.4375 0.96875,0 1.71875,-0.42188 0.75,-0.4375 1.10938,-1.15625 0.26562,-0.57812 0.26562,-1.67187 l 0,-0.60938 z m 4.06323,4.9375 0,-9.85937 1.5,0 0,1.5 q 0.57813,-1.04688 1.0625,-1.375 0.48438,-0.34375 1.07813,-0.34375 0.84375,0 1.71875,0.54687 l -0.57813,1.54688 q -0.60937,-0.35938 -1.23437,-0.35938 -0.54688,0 -0.98438,0.32813 -0.42187,0.32812 -0.60937,0.90625 -0.28125,0.89062 -0.28125,1.95312 l 0,5.15625 -1.67188,0 z m 5.5564,-2.9375 1.65625,-0.26562 q 0.14063,1 0.76563,1.53125 0.64062,0.51562 1.78125,0.51562 1.15625,0 1.70312,-0.46875 0.5625,-0.46875 0.5625,-1.09375 0,-0.5625 -0.48437,-0.89062 -0.34375,-0.21875 -1.70313,-0.5625 -1.84375,-0.46875 -2.5625,-0.79688 -0.70312,-0.34375 -1.07812,-0.9375 -0.35938,-0.60937 -0.35938,-1.32812 0,-0.65625 0.29688,-1.21875 0.3125,-0.5625 0.82812,-0.9375 0.39063,-0.28125 1.0625,-0.48438 0.67188,-0.20312 1.4375,-0.20312 1.17188,0 2.04688,0.34375 0.875,0.32812 1.28125,0.90625 0.42187,0.5625 0.57812,1.51562 l -1.625,0.21875 q -0.10937,-0.75 -0.65625,-1.17187 -0.53125,-0.4375 -1.5,-0.4375 -1.15625,0 -1.64062,0.39062 -0.48438,0.375 -0.48438,0.875 0,0.32813 0.20313,0.59375 0.20312,0.26563 0.64062,0.4375 0.25,0.0937 1.46875,0.4375 1.76563,0.46875 2.46875,0.76563 0.70313,0.29687 1.09375,0.875 0.40625,0.57812 0.40625,1.4375 0,0.82812 -0.48437,1.57812 -0.48438,0.73438 -1.40625,1.14063 -0.92188,0.39062 -2.07813,0.39062 -1.92187,0 -2.9375,-0.79687 -1,-0.79688 -1.28125,-2.35938 z m 16.75,-0.23437 1.71875,0.21875 q -0.40625,1.5 -1.51562,2.34375 -1.09375,0.82812 -2.8125,0.82812 -2.15625,0 -3.42188,-1.32812 -1.26562,-1.32813 -1.26562,-3.73438 0,-2.48437 1.26562,-3.85937 1.28125,-1.375 3.32813,-1.375 1.98437,0 3.23437,1.34375 1.25,1.34375 1.25,3.79687 0,0.14063 -0.0156,0.4375 l -7.34375,0 q 0.0937,1.625 0.92187,2.48438 0.82813,0.85937 2.0625,0.85937 0.90625,0 1.54688,-0.46875 0.65625,-0.48437 1.04687,-1.54687 z m -5.48437,-2.70313 5.5,0 q -0.10938,-1.23437 -0.625,-1.85937 -0.79688,-0.96875 -2.07813,-0.96875 -1.14062,0 -1.9375,0.78125 -0.78125,0.76562 -0.85937,2.04687 z m 9.09448,5.875 0,-9.85937 1.5,0 0,1.5 q 0.57812,-1.04688 1.0625,-1.375 0.48437,-0.34375 1.07812,-0.34375 0.84375,0 1.71875,0.54687 l -0.57812,1.54688 q -0.60938,-0.35938 -1.23438,-0.35938 -0.54687,0 -0.98437,0.32813 -0.42188,0.32812 -0.60938,0.90625 -0.28125,0.89062 -0.28125,1.95312 l 0,5.15625 -1.67187,0 z"
       id="path39"
       inkscape:connector-curvature="0"
       style="fill:#000000;fill-rule:nonzero" />
    <path
       d="m 65,138 130.99213,0 0,77.00787 -130.99213,0 z"
       id="path41"
       inkscape:connector-curvature="0"
       style="fill:#000000;fill-opacity:0;fill-rule:nonzero" />
    <path
       d="m 65,138 130.99213,0 0,77.00787 -130.99213,0 z"
       id="path43"
       inkscape:connector-curvature="0"
       style="stroke:#000000;stroke-width:1;stroke-linecap:butt;stroke-linejoin:round;stroke-dasharray:4, 3" />
    <path
       d="m 82.5,158.14125 2.234375,0.71875 q -0.515625,1.875 -1.71875,2.79688 -1.1875,0.90625 -3.03125,0.90625 -2.28125,0 -3.75,-1.5625 -1.46875,-1.5625 -1.46875,-4.26563 0,-2.85937 1.46875,-4.4375 1.484375,-1.59375 3.890625,-1.59375 2.09375,0 3.40625,1.25 0.78125,0.73438 1.171875,2.10938 L 82.421875,154.61 Q 82.21875,153.71938 81.5625,153.20375 80.921875,152.68813 80,152.68813 q -1.265625,0 -2.0625,0.92187 -0.796875,0.90625 -0.796875,2.95313 0,2.17187 0.78125,3.09375 0.78125,0.92187 2.03125,0.92187 0.921875,0 1.578125,-0.57812 0.671875,-0.59375 0.96875,-1.85938 z m 9.554687,0 0,-1.92187 4.984375,0 0,4.5625 q -0.734375,0.70312 -2.109375,1.25 -1.375,0.53125 -2.796875,0.53125 -1.796875,0 -3.140625,-0.75 -1.328125,-0.76563 -2,-2.17188 -0.671875,-1.40625 -0.671875,-3.04687 0,-1.79688 0.75,-3.1875 0.75,-1.39063 2.203125,-2.125 1.09375,-0.57813 2.734375,-0.57813 2.140625,0 3.328125,0.90625 1.203125,0.89063 1.546875,2.46875 l -2.296875,0.42188 q -0.234375,-0.84375 -0.90625,-1.32813 -0.671875,-0.48437 -1.671875,-0.48437 -1.515625,0 -2.40625,0.96875 -0.890625,0.95312 -0.890625,2.84375 0,2.03125 0.90625,3.0625 0.90625,1.01562 2.375,1.01562 0.71875,0 1.453125,-0.28125 0.734375,-0.29687 1.25,-0.70312 l 0,-1.45313 -2.640625,0 z M 101.25,162.36 l -2.1875,0 0,-8.29687 2.03125,0 0,1.17187 q 0.53125,-0.82812 0.9375,-1.09375 0.42188,-0.26562 0.95313,-0.26562 0.75,0 1.45312,0.40625 l -0.6875,1.92187 q -0.54687,-0.35937 -1.03125,-0.35937 -0.45312,0 -0.78125,0.25 -0.3125,0.25 -0.5,0.92187 -0.1875,0.65625 -0.1875,2.78125 l 0,2.5625 z m 4.13281,-9.42187 0,-2.03125 2.1875,0 0,2.03125 -2.1875,0 z m 0,9.42187 0,-8.29687 2.1875,0 0,8.29687 -2.1875,0 z m 4.38282,-8.29687 2.04687,0 0,1.21875 q 0.39063,-0.625 1.0625,-1.01563 0.6875,-0.39062 1.51563,-0.39062 1.45312,0 2.45312,1.14062 1.01563,1.125 1.01563,3.14063 0,2.07812 -1.01563,3.23437 -1.01562,1.15625 -2.46875,1.15625 -0.6875,0 -1.25,-0.26562 -0.54687,-0.28125 -1.17187,-0.95313 l 0,4.1875 -2.1875,0 0,-11.45312 z m 2.17187,4 q 0,1.40625 0.54688,2.07812 0.5625,0.65625 1.35937,0.65625 0.76563,0 1.26563,-0.60937 0.51562,-0.60938 0.51562,-2.01563 0,-1.29687 -0.53125,-1.92187 -0.51562,-0.64063 -1.29687,-0.64063 -0.79688,0 -1.32813,0.625 -0.53125,0.60938 -0.53125,1.82813 z m 7.21094,-1.35938 q 0,-1.75 0.51562,-2.9375 0.39063,-0.875 1.0625,-1.5625 0.6875,-0.70312 1.48438,-1.04687 1.07812,-0.45313 2.46875,-0.45313 2.53125,0 4.04687,1.57813 1.53125,1.5625 1.53125,4.35937 0,2.78125 -1.51562,4.35938 -1.5,1.5625 -4.03125,1.5625 -2.54688,0 -4.0625,-1.5625 -1.5,-1.5625 -1.5,-4.29688 z m 2.375,-0.0781 q 0,1.9375 0.89062,2.95312 0.90625,1 2.29688,1 1.375,0 2.26562,-1 0.89063,-1 0.89063,-2.98437 0,-1.96875 -0.875,-2.9375 -0.85938,-0.96875 -2.28125,-0.96875 -1.4375,0 -2.3125,0.98437 -0.875,0.96875 -0.875,2.95313 z m 10.42968,5.73437 0,-11.45312 2.1875,0 0,4.125 q 1.01563,-1.15625 2.40625,-1.15625 1.51563,0 2.5,1.09375 1,1.09375 1,3.15625 0,2.125 -1.01562,3.28125 -1,1.14062 -2.45313,1.14062 -0.70312,0 -1.40625,-0.35937 -0.6875,-0.35938 -1.1875,-1.04688 l 0,1.21875 -2.03125,0 z m 2.17188,-4.32812 q 0,1.28125 0.40625,1.90625 0.57812,0.875 1.51562,0.875 0.73438,0 1.23438,-0.625 0.51562,-0.625 0.51562,-1.95313 0,-1.42187 -0.51562,-2.04687 -0.51563,-0.64063 -1.3125,-0.64063 -0.79688,0 -1.32813,0.625 -0.51562,0.60938 -0.51562,1.85938 z m 7.64844,-5.09375 0,-2.03125 2.1875,0 0,2.03125 -2.1875,0 z m 2.1875,1.125 0,8.03125 q 0,1.59375 -0.20313,2.25 -0.20312,0.65625 -0.79687,1.01562 -0.59375,0.375 -1.5,0.375 -0.32813,0 -0.71875,-0.0625 -0.375,-0.0625 -0.8125,-0.17187 l 0.375,-1.875 q 0.15625,0.0312 0.29687,0.0469 0.14063,0.0156 0.26563,0.0156 0.32812,0 0.54687,-0.14063 0.21875,-0.14062 0.28125,-0.34375 0.0781,-0.20312 0.0781,-1.23437 l 0,-7.90625 2.1875,0 z m 7.10156,5.65625 2.1875,0.35937 q -0.42188,1.20313 -1.32813,1.84375 -0.90625,0.625 -2.28125,0.625 -2.15625,0 -3.20312,-1.42187 -0.8125,-1.125 -0.8125,-2.85938 0,-2.0625 1.07812,-3.21875 1.07813,-1.17187 2.71875,-1.17187 1.85938,0 2.92188,1.21875 1.07812,1.21875 1.03125,3.75 l -5.5,0 q 0.0156,0.96875 0.51562,1.51562 0.51563,0.54688 1.28125,0.54688 0.51563,0 0.85938,-0.28125 0.35937,-0.28125 0.53125,-0.90625 z m 0.125,-2.21875 q -0.0156,-0.95313 -0.48438,-1.45313 -0.46875,-0.5 -1.14062,-0.5 -0.71875,0 -1.1875,0.53125 -0.46875,0.51563 -0.46875,1.42188 l 3.28125,0 z m 11.21094,-0.98438 -2.17188,0.39063 q -0.10937,-0.65625 -0.5,-0.98438 -0.375,-0.32812 -1,-0.32812 -0.8125,0 -1.3125,0.57812 -0.48437,0.5625 -0.48437,1.89063 0,1.46875 0.5,2.07812 0.5,0.60938 1.32812,0.60938 0.625,0 1.01563,-0.34375 0.40625,-0.35938 0.57812,-1.23438 l 2.15625,0.375 q -0.34375,1.48438 -1.29687,2.25 -0.95313,0.75 -2.54688,0.75 -1.82812,0 -2.90625,-1.14062 -1.07812,-1.15625 -1.07812,-3.1875 0,-2.0625 1.07812,-3.20313 1.09375,-1.14062 2.9375,-1.14062 1.51563,0 2.40625,0.65625 0.90625,0.64062 1.29688,1.98437 z m 5.46093,-2.45312 0,1.75 -1.5,0 0,3.34375 q 0,1.01562 0.0469,1.1875 0.0469,0.15625 0.1875,0.26562 0.15625,0.10938 0.375,0.10938 0.3125,0 0.89062,-0.20313 l 0.1875,1.70313 q -0.76562,0.32812 -1.73437,0.32812 -0.59375,0 -1.07813,-0.20312 -0.46875,-0.20313 -0.70312,-0.51563 -0.21875,-0.3125 -0.29688,-0.85937 -0.0781,-0.375 -0.0781,-1.54688 l 0,-3.60937 -1,0 0,-1.75 1,0 0,-1.65625 2.20312,-1.28125 0,2.9375 1.5,0 z"
       id="path45"
       inkscape:connector-curvature="0"
       style="fill:#000000;fill-rule:nonzero" />
    <path
       d="m 76,167.01575 82.99213,0 0,37.98425 L 76,205 z"
       id="path47"
       inkscape:connector-curvature="0"
       style="fill:#000000;fill-opacity:0;fill-rule:nonzero" />
    <path
       d="m 76,167.01575 82.99213,0 0,37.98425 L 76,205 z"
       id="path49"
       inkscape:connector-curvature="0"
       style="stroke:#000000;stroke-width:1;stroke-linecap:butt;stroke-linejoin:round;stroke-dasharray:4, 3" />
    <path
       d="m 91.90625,185.39388 1.8125,0.57812 q -0.421875,1.51563 -1.390625,2.26563 -0.96875,0.73437 -2.46875,0.73437 -1.859375,0 -3.0625,-1.26562 -1.1875,-1.26563 -1.1875,-3.46875 0,-2.3125 1.203125,-3.59375 1.203125,-1.29688 3.15625,-1.29688 1.703125,0 2.78125,1.01563 0.625,0.59375 0.953125,1.71875 l -1.859375,0.4375 q -0.171875,-0.71875 -0.703125,-1.14063 -0.515625,-0.42187 -1.265625,-0.42187 -1.03125,0 -1.6875,0.75 -0.640625,0.73437 -0.640625,2.40625 0,1.75 0.640625,2.5 0.640625,0.75 1.65625,0.75 0.75,0 1.28125,-0.46875 0.546875,-0.48438 0.78125,-1.5 z m 8.000153,0 0,-1.5625 4.046877,0 0,3.70312 q -0.59375,0.5625 -1.71875,1 -1.10938,0.4375 -2.265627,0.4375 -1.453125,0 -2.546875,-0.60937 -1.078125,-0.60938 -1.625,-1.75 -0.546875,-1.14063 -0.546875,-2.48438 0,-1.45312 0.609375,-2.57812 0.609375,-1.125 1.78125,-1.73438 0.890625,-0.46875 2.234375,-0.46875 1.718747,0 2.687497,0.73438 0.98438,0.71875 1.26563,2 l -1.85938,0.35937 q -0.20312,-0.6875 -0.75,-1.07812 -0.53125,-0.40625 -1.343747,-0.40625 -1.234375,0 -1.96875,0.78125 -0.71875,0.78125 -0.71875,2.3125 0,1.65625 0.734375,2.48437 0.734375,0.82813 1.921875,0.82813 0.593747,0 1.187497,-0.21875 0.59375,-0.23438 1.01563,-0.5625 l 0,-1.1875 -2.140627,0 z m 7.726427,3.42187 -1.78125,0 0,-6.73437 1.65625,0 0,0.95312 q 0.42187,-0.6875 0.76562,-0.89062 0.34375,-0.21875 0.76563,-0.21875 0.60937,0 1.17187,0.32812 l -0.54687,1.5625 q -0.45313,-0.29687 -0.84375,-0.29687 -0.375,0 -0.64063,0.21875 -0.25,0.20312 -0.40625,0.75 -0.14062,0.53125 -0.14062,2.25 l 0,2.07812 z m 3.48366,-7.65625 0,-1.65625 1.78125,0 0,1.65625 -1.78125,0 z m 0,7.65625 0,-6.73437 1.78125,0 0,6.73437 -1.78125,0 z m 3.64048,-6.73437 1.67188,0 0,0.98437 q 0.32812,-0.51562 0.875,-0.82812 0.54687,-0.3125 1.21875,-0.3125 1.1875,0 2,0.92187 0.8125,0.92188 0.8125,2.5625 0,1.6875 -0.82813,2.625 -0.8125,0.9375 -1.98437,0.9375 -0.5625,0 -1.01563,-0.21875 -0.45312,-0.23437 -0.95312,-0.76562 l 0,3.39062 -1.79688,0 0,-9.29687 z m 1.76563,3.25 q 0,1.14062 0.45312,1.6875 0.45313,0.53125 1.10938,0.53125 0.60937,0 1.01562,-0.5 0.42188,-0.5 0.42188,-1.625 0,-1.0625 -0.42188,-1.57813 -0.42187,-0.51562 -1.04687,-0.51562 -0.65625,0 -1.09375,0.51562 -0.4375,0.5 -0.4375,1.48438 z m 6.43823,-5.82813 1.875,0 0,5.04688 q 0,1.20312 0.0625,1.5625 0.125,0.5625 0.57813,0.90625 0.45312,0.34375 1.25,0.34375 0.79687,0 1.20312,-0.3125 0.40625,-0.32813 0.48438,-0.79688 0.0781,-0.48437 0.0781,-1.59375 l 0,-5.15625 1.89063,0 0,4.89063 q 0,1.67187 -0.15625,2.375 -0.15625,0.6875 -0.5625,1.17187 -0.40625,0.46875 -1.09375,0.75 -0.6875,0.28125 -1.79688,0.28125 -1.32812,0 -2.01562,-0.29687 -0.6875,-0.3125 -1.09375,-0.79688 -0.39063,-0.5 -0.51563,-1.04687 -0.1875,-0.79688 -0.1875,-2.35938 l 0,-4.96875 z m 15.75015,9.3125 -1.78125,0 0,-3.4375 q 0,-1.09375 -0.125,-1.40625 -0.10937,-0.32812 -0.375,-0.5 -0.25,-0.1875 -0.60937,-0.1875 -0.45313,0 -0.82813,0.26563 -0.35937,0.25 -0.5,0.67187 -0.14062,0.40625 -0.14062,1.54688 l 0,3.04687 -1.78125,0 0,-6.73437 1.65625,0 0,0.98437 q 0.875,-1.14062 2.21875,-1.14062 0.59375,0 1.07812,0.21875 0.48438,0.20312 0.73438,0.53125 0.26562,0.32812 0.35937,0.75 0.0937,0.42187 0.0937,1.20312 l 0,4.1875 z m 2.01636,-7.65625 0,-1.65625 1.78125,0 0,1.65625 -1.78125,0 z m 0,7.65625 0,-6.73437 1.78125,0 0,6.73437 -1.78125,0 z m 6.79674,-6.73437 0,1.42187 -1.21875,0 0,2.70313 q 0,0.82812 0.0312,0.96875 0.0312,0.14062 0.15625,0.23437 0.125,0.0781 0.29687,0.0781 0.25,0 0.71875,-0.17188 l 0.15625,1.39063 q -0.625,0.26562 -1.40625,0.26562 -0.48437,0 -0.875,-0.15625 -0.39062,-0.17187 -0.57812,-0.42187 -0.17188,-0.26563 -0.23438,-0.70313 -0.0625,-0.3125 -0.0625,-1.25 l 0,-2.9375 -0.8125,0 0,-1.42187 0.8125,0 0,-1.34375 1.79688,-1.04688 0,2.39063 1.21875,0 z"
       id="path51"
       inkscape:connector-curvature="0"
       style="fill:#000000;fill-rule:nonzero" />
  </g>
</svg>
