<?xml version="1.0" encoding="UTF-8" standalone="no"?>
<svg
   xmlns:dc="http://purl.org/dc/elements/1.1/"
   xmlns:cc="http://creativecommons.org/ns#"
   xmlns:rdf="http://www.w3.org/1999/02/22-rdf-syntax-ns#"
   xmlns:svg="http://www.w3.org/2000/svg"
   xmlns="http://www.w3.org/2000/svg"
   xmlns:sodipodi="http://sodipodi.sourceforge.net/DTD/sodipodi-0.dtd"
   xmlns:inkscape="http://www.inkscape.org/namespaces/inkscape"
   version="1.1"
   viewBox="0 0 772 589"
   stroke-miterlimit="10"
   id="svg2"
   inkscape:version="0.48.5 r10040"
   width="100%"
   height="100%"
   sodipodi:docname="2.svg"
   style="fill:none;stroke:none">
  <metadata
     id="metadata107">
    <rdf:RDF>
      <cc:Work
         rdf:about="">
        <dc:format>image/svg+xml</dc:format>
        <dc:type
           rdf:resource="http://purl.org/dc/dcmitype/StillImage" />
        <dc:title></dc:title>
      </cc:Work>
    </rdf:RDF>
  </metadata>
  <defs
     id="defs105" />
  <sodipodi:namedview
     pagecolor="#ffffff"
     bordercolor="#666666"
     borderopacity="1"
     objecttolerance="10"
     gridtolerance="10"
     guidetolerance="10"
     inkscape:pageopacity="0"
     inkscape:pageshadow="2"
     inkscape:window-width="1280"
     inkscape:window-height="938"
     id="namedview103"
     showgrid="false"
     inkscape:zoom="0.65555556"
     inkscape:cx="548.04952"
     inkscape:cy="326.00891"
     inkscape:window-x="-4"
     inkscape:window-y="-4"
     inkscape:window-maximized="1"
     inkscape:current-layer="svg2" />
  <clipPath
     id="p.0">
    <path
       d="M 0,0 960,0 960,720 0,720 0,0 z"
       clip-rule="nonzero"
       id="path5"
       inkscape:connector-curvature="0" />
  </clipPath>
  <g
     clip-path="url(#p.0)"
     id="g7"
     transform="translate(-28.983051,-82.186441)">
    <path
       d="m 0,0 960,0 0,720 -960,0 z"
       id="path9"
       inkscape:connector-curvature="0"
       style="fill:#000000;fill-opacity:0;fill-rule:nonzero" />
    <path
       d="m 160.50394,110 638.9922,0 0,430.99213 -638.9922,0 z"
       id="path11"
       inkscape:connector-curvature="0"
       style="fill:#d9d9d9;fill-rule:nonzero" />
    <path
       d="m 160.50394,110 638.9922,0 0,430.99213 -638.9922,0 z"
       id="path13"
       inkscape:connector-curvature="0"
       style="stroke:#000000;stroke-width:2;stroke-linecap:butt;stroke-linejoin:round" />
    <path
       d="m 160.50394,72.99213 93.00787,0 0,37.00787 -93.00787,0 z"
       id="path15"
       inkscape:connector-curvature="0"
       style="fill:#000000;fill-opacity:0;fill-rule:nonzero" />
    <path
       d="m 170.19144,95.49025 2.67187,-0.265625 q 0.23438,1.34375 0.96875,1.984375 0.75,0.625 2,0.625 1.32813,0 2,-0.5625 0.67188,-0.5625 0.67188,-1.3125 0,-0.484375 -0.28125,-0.8125 -0.28125,-0.34375 -0.98438,-0.59375 -0.48437,-0.171875 -2.20312,-0.59375 -2.20313,-0.546875 -3.09375,-1.34375 -1.26563,-1.125 -1.26563,-2.734375 0,-1.046875 0.59375,-1.953125 0.59375,-0.90625 1.70313,-1.375 1.10937,-0.46875 2.67187,-0.46875 2.5625,0 3.85938,1.125 1.29687,1.109375 1.35937,2.984375 l -2.75,0.125 q -0.17187,-1.046875 -0.75,-1.5 -0.57812,-0.46875 -1.75,-0.46875 -1.1875,0 -1.875,0.5 -0.4375,0.3125 -0.4375,0.84375 0,0.484375 0.42188,0.828125 0.51562,0.421875 2.51562,0.90625 2,0.46875 2.95313,0.984375 0.96875,0.5 1.51562,1.375 0.54688,0.875 0.54688,2.15625 0,1.171875 -0.65625,2.203125 -0.64063,1.015625 -1.82813,1.515625 -1.1875,0.484375 -2.96875,0.484375 -2.57812,0 -3.96875,-1.1875 -1.375,-1.1875 -1.64062,-3.46875 z m 21.7092,-2.515625 -2.5625,0.46875 q -0.14063,-0.78125 -0.59375,-1.171875 -0.45313,-0.390625 -1.1875,-0.390625 -0.98438,0 -1.5625,0.671875 -0.57813,0.671875 -0.57813,2.25 0,1.765625 0.57813,2.484375 0.59375,0.71875 1.59375,0.71875 0.75,0 1.21875,-0.421875 0.46875,-0.421875 0.67187,-1.453125 l 2.54688,0.4375 q -0.39063,1.765625 -1.53125,2.671875 -1.125,0.89063 -3.03125,0.89063 -2.15625,0 -3.45313,-1.35938 -1.28125,-1.359375 -1.28125,-3.78125 0,-2.4375 1.29688,-3.796875 1.29687,-1.359375 3.48437,-1.359375 1.79688,0 2.85938,0.78125 1.0625,0.765625 1.53125,2.359375 z m 7.48509,3.796875 2.60938,0.4375 q -0.5,1.4375 -1.59375,2.1875 -1.07813,0.73438 -2.70313,0.73438 -2.5625,0 -3.79687,-1.67188 -0.96875,-1.34375 -0.96875,-3.40625 0,-2.4375 1.26562,-3.828125 1.28125,-1.390625 3.25,-1.390625 2.1875,0 3.45313,1.453125 1.28125,1.453125 1.23437,4.453125 l -6.53125,0 q 0.0156,1.15625 0.625,1.8125 0.60938,0.640625 1.5,0.640625 0.60938,0 1.03125,-0.328125 0.42188,-0.34375 0.625,-1.09375 z m 0.15625,-2.625 q -0.0312,-1.140625 -0.59375,-1.71875 -0.54687,-0.59375 -1.34375,-0.59375 -0.85937,0 -1.40625,0.625 -0.5625,0.609375 -0.54687,1.6875 l 3.89062,0 z m 13.48509,5.765625 -2.60937,0 0,-5.03125 q 0,-1.59375 -0.17188,-2.0625 -0.15625,-0.46875 -0.53125,-0.71875 -0.375,-0.265625 -0.90625,-0.265625 -0.6875,0 -1.23437,0.375 -0.53125,0.359375 -0.73438,0.984375 -0.1875,0.609375 -0.1875,2.25 l 0,4.46875 -2.60937,0 0,-9.859375 2.42187,0 0,1.453125 q 1.29688,-1.671875 3.25,-1.671875 0.85938,0 1.57813,0.3125 0.71875,0.3125 1.07812,0.796875 0.35938,0.484375 0.5,1.09375 0.15625,0.609375 0.15625,1.75 l 0,6.125 z m 8.13036,-3.140625 2.60937,0.4375 q -0.5,1.4375 -1.59375,2.1875 -1.07812,0.73438 -2.70312,0.73438 -2.5625,0 -3.79688,-1.67188 -0.96875,-1.34375 -0.96875,-3.40625 0,-2.4375 1.26563,-3.828125 1.28125,-1.390625 3.25,-1.390625 2.1875,0 3.45312,1.453125 1.28125,1.453125 1.23438,4.453125 l -6.53125,0 q 0.0156,1.15625 0.625,1.8125 0.60937,0.640625 1.5,0.640625 0.60937,0 1.03125,-0.328125 0.42187,-0.34375 0.625,-1.09375 z m 0.15625,-2.625 q -0.0312,-1.140625 -0.59375,-1.71875 -0.54688,-0.59375 -1.34375,-0.59375 -0.85938,0 -1.40625,0.625 -0.5625,0.609375 -0.54688,1.6875 l 3.89063,0 z"
       id="path17"
       inkscape:connector-curvature="0"
       style="fill:#000000;fill-rule:nonzero" />
    <path
       d="m 32.755905,415.01575 359.496025,0 0,254.99213 -359.496025,0 z"
       id="path19"
       inkscape:connector-curvature="0"
       style="fill:#000000;fill-opacity:0;fill-rule:nonzero" />
    <path
       d="m 32.755905,415.01575 359.496025,0 0,254.99213 -359.496025,0 z"
       id="path21"
       inkscape:connector-curvature="0"
       style="stroke:#000000;stroke-width:2;stroke-linecap:butt;stroke-linejoin:round" />
    <path
       d="m 37.496063,383.00787 128.503937,0 0,37.00787 -128.503937,0 z"
       id="path23"
       inkscape:connector-curvature="0"
       style="fill:#000000;fill-opacity:0;fill-rule:nonzero" />
    <path
       d="m 51.35544,409.9279 -4.875,-13.59375 2.984375,0 3.4375,10.0625 3.328125,-10.0625 2.921875,0 -4.875,13.59375 -2.921875,0 z m 8.943573,-11.1875 0,-2.40625 2.609375,0 0,2.40625 -2.609375,0 z m 0,11.1875 0,-9.85937 2.609375,0 0,9.85937 -2.609375,0 z m 10.886429,-3.14062 2.609375,0.4375 q -0.5,1.4375 -1.59375,2.1875 -1.078125,0.73437 -2.703125,0.73437 -2.5625,0 -3.796875,-1.67187 -0.96875,-1.34375 -0.96875,-3.40625 0,-2.4375 1.265625,-3.82813 1.28125,-1.39062 3.25,-1.39062 2.1875,0 3.453125,1.45312 1.28125,1.45313 1.234375,4.45313 l -6.53125,0 q 0.01563,1.15625 0.625,1.8125 0.609375,0.64062 1.5,0.64062 0.609375,0 1.03125,-0.32812 0.421875,-0.34375 0.625,-1.09375 z m 0.15625,-2.625 q -0.03125,-1.14063 -0.59375,-1.71875 -0.546875,-0.59375 -1.34375,-0.59375 -0.859375,0 -1.40625,0.625 -0.5625,0.60937 -0.546875,1.6875 l 3.890625,0 z m 6.360092,5.76562 -3.125,-9.85937 2.53125,0 1.859375,6.46875 1.6875,-6.46875 2.515625,0 1.640625,6.46875 1.890625,-6.46875 2.5625,0 -3.15625,9.85937 -2.515625,0 -1.6875,-6.34375 -1.671875,6.34375 -2.53125,0 z m 11.995804,-4.42187 2.671875,-0.26563 q 0.234375,1.34375 0.96875,1.98438 0.75,0.625 2,0.625 1.328125,0 2,-0.5625 0.671875,-0.5625 0.671875,-1.3125 0,-0.48438 -0.28125,-0.8125 -0.28125,-0.34375 -0.984375,-0.59375 -0.484375,-0.17188 -2.203125,-0.59375 -2.203125,-0.54688 -3.09375,-1.34375 -1.265625,-1.125 -1.265625,-2.73438 0,-1.04687 0.59375,-1.95312 0.59375,-0.90625 1.703125,-1.375 1.109375,-0.46875 2.671875,-0.46875 2.5625,0 3.859375,1.125 1.296872,1.10937 1.359372,2.98437 l -2.749997,0.125 q -0.171875,-1.04687 -0.75,-1.5 -0.578125,-0.46875 -1.75,-0.46875 -1.1875,0 -1.875,0.5 -0.4375,0.3125 -0.4375,0.84375 0,0.48438 0.421875,0.82813 0.515625,0.42187 2.515625,0.90625 2,0.46875 2.953125,0.98437 0.96875,0.5 1.515622,1.375 0.54688,0.875 0.54688,2.15625 0,1.17188 -0.65625,2.20313 -0.640627,1.01562 -1.828127,1.51562 -1.1875,0.48438 -2.96875,0.48438 -2.578125,0 -3.96875,-1.1875 -1.375,-1.1875 -1.640625,-3.46875 z m 21.709202,-2.51563 -2.5625,0.46875 q -0.14063,-0.78125 -0.59375,-1.17187 -0.45313,-0.39063 -1.1875,-0.39063 -0.98438,0 -1.5625,0.67188 -0.57813,0.67187 -0.57813,2.25 0,1.76562 0.57813,2.48437 0.59375,0.71875 1.59375,0.71875 0.75,0 1.21875,-0.42187 0.46875,-0.42188 0.67187,-1.45313 l 2.54688,0.4375 q -0.39063,1.76563 -1.53125,2.67188 -1.125,0.89062 -3.03125,0.89062 -2.15625,0 -3.45313,-1.35937 -1.28125,-1.35938 -1.28125,-3.78125 0,-2.4375 1.29688,-3.79688 1.29687,-1.35937 3.48437,-1.35937 1.79688,0 2.85938,0.78125 1.0625,0.76562 1.53125,2.35937 z m 7.48509,3.79688 2.60937,0.4375 q -0.5,1.4375 -1.59375,2.1875 -1.07812,0.73437 -2.70312,0.73437 -2.5625,0 -3.79688,-1.67187 -0.96875,-1.34375 -0.96875,-3.40625 0,-2.4375 1.26563,-3.82813 1.28125,-1.39062 3.25,-1.39062 2.1875,0 3.45312,1.45312 1.28125,1.45313 1.23438,4.45313 l -6.53125,0 q 0.0156,1.15625 0.625,1.8125 0.60937,0.64062 1.5,0.64062 0.60937,0 1.03125,-0.32812 0.42187,-0.34375 0.625,-1.09375 z m 0.15625,-2.625 q -0.0312,-1.14063 -0.59375,-1.71875 -0.54688,-0.59375 -1.34375,-0.59375 -0.85938,0 -1.40625,0.625 -0.5625,0.60937 -0.54688,1.6875 l 3.89063,0 z m 13.48509,5.76562 -2.60938,0 0,-5.03125 q 0,-1.59375 -0.17187,-2.0625 -0.15625,-0.46875 -0.53125,-0.71875 -0.375,-0.26562 -0.90625,-0.26562 -0.6875,0 -1.23437,0.375 -0.53125,0.35937 -0.73438,0.98437 -0.1875,0.60938 -0.1875,2.25 l 0,4.46875 -2.60937,0 0,-9.85937 2.42187,0 0,1.45312 q 1.29688,-1.67187 3.25,-1.67187 0.85937,0 1.57812,0.3125 0.71875,0.3125 1.07813,0.79687 0.35937,0.48438 0.5,1.09375 0.15625,0.60938 0.15625,1.75 l 0,6.125 z m 8.13036,-3.14062 2.60937,0.4375 q -0.5,1.4375 -1.59375,2.1875 -1.07812,0.73437 -2.70312,0.73437 -2.5625,0 -3.79688,-1.67187 -0.96875,-1.34375 -0.96875,-3.40625 0,-2.4375 1.26563,-3.82813 1.28125,-1.39062 3.25,-1.39062 2.1875,0 3.45312,1.45312 1.28125,1.45313 1.23438,4.45313 l -6.53125,0 q 0.0156,1.15625 0.625,1.8125 0.60937,0.64062 1.5,0.64062 0.60937,0 1.03125,-0.32812 0.42187,-0.34375 0.625,-1.09375 z m 0.15625,-2.625 q -0.0312,-1.14063 -0.59375,-1.71875 -0.54688,-0.59375 -1.34375,-0.59375 -0.85938,0 -1.40625,0.625 -0.5625,0.60937 -0.54688,1.6875 l 3.89063,0 z"
       id="path25"
       inkscape:connector-curvature="0"
       style="fill:#000000;fill-rule:nonzero" />
    <path
       d="m 295.25986,159.50394 359.49606,0 0,254.99213 -359.49606,0 z"
       id="path27"
       inkscape:connector-curvature="0"
       style="fill:#000000;fill-opacity:0;fill-rule:nonzero" />
    <path
       d="m 295.25986,159.50394 359.49606,0 0,254.99213 -359.49606,0 z"
       id="path29"
       inkscape:connector-curvature="0"
       style="stroke:#000000;stroke-width:1;stroke-linecap:butt;stroke-linejoin:round;stroke-dasharray:4, 3" />
    <path
       d="M 31,423.83203 293.99213,160.99737"
       id="path31"
       inkscape:connector-curvature="0"
       style="fill:#000000;fill-opacity:0;fill-rule:nonzero" />
    <path
       d="M 31,423.83203 293.99213,160.99737"
       id="path33"
       inkscape:connector-curvature="0"
       style="stroke:#000000;stroke-width:1;stroke-linecap:butt;stroke-linejoin:round;stroke-dasharray:1, 3" />
    <path
       d="M 392,415.83203 654.77167,159.51709"
       id="path35"
       inkscape:connector-curvature="0"
       style="fill:#000000;fill-opacity:0;fill-rule:nonzero" />
    <path
       d="M 392,415.83203 654.77167,159.51709"
       id="path37"
       inkscape:connector-curvature="0"
       style="stroke:#000000;stroke-width:1;stroke-linecap:butt;stroke-linejoin:round;stroke-dasharray:1, 3" />
    <path
       d="M 394,667.83203 654.0315,414.50918"
       id="path39"
       inkscape:connector-curvature="0"
       style="fill:#000000;fill-opacity:0;fill-rule:nonzero" />
    <path
       d="M 394,667.83203 654.0315,414.50918"
       id="path41"
       inkscape:connector-curvature="0"
       style="stroke:#000000;stroke-width:1;stroke-linecap:butt;stroke-linejoin:round;stroke-dasharray:1, 3" />
    <path
       d="M 33,670.83203 295.26773,414.48556"
       id="path43"
       inkscape:connector-curvature="0"
       style="fill:#000000;fill-opacity:0;fill-rule:nonzero" />
    <path
       d="M 33,670.83203 295.26773,414.48556"
       id="path45"
       inkscape:connector-curvature="0"
       style="stroke:#000000;stroke-width:1;stroke-linecap:butt;stroke-linejoin:round;stroke-dasharray:1, 3" />
    <path
       d="M 335,321.00787 396.00787,192 457.01575,321.00787 z"
       id="path47"
       inkscape:connector-curvature="0"
       style="fill:#c9daf8;fill-rule:nonzero" />
    <path
       d="M 335,321.00787 396.00787,192 457.01575,321.00787 z"
       id="path49"
       inkscape:connector-curvature="0"
       style="stroke:#000000;stroke-width:2;stroke-linecap:butt;stroke-linejoin:round" />
    <path
       d="m 393,318.50394 0,0 C 393,282.8794 420.31415,254 454.00787,254 l 0,0 c 16.1803,0 31.69788,6.79593 43.13907,18.89276 11.44123,12.09683 17.86881,28.50366 17.86881,45.61118 l 0,0 c 0,35.62454 -27.31415,64.50394 -61.00787,64.50394 l 0,0 C 420.31415,383.00788 393,354.12848 393,318.50394 z"
       id="path51"
       inkscape:connector-curvature="0"
       style="fill:#fff2cc;fill-rule:nonzero" />
    <path
       d="m 393,318.50394 0,0 C 393,282.8794 420.31415,254 454.00787,254 l 0,0 c 16.1803,0 31.69788,6.79593 43.13907,18.89276 11.44123,12.09683 17.86881,28.50366 17.86881,45.61118 l 0,0 c 0,35.62454 -27.31415,64.50394 -61.00787,64.50394 l 0,0 C 420.31415,383.00788 393,354.12848 393,318.50394 z"
       id="path53"
       inkscape:connector-curvature="0"
       style="stroke:#000000;stroke-width:2;stroke-linecap:butt;stroke-linejoin:round" />
    <path
       d="m 392.25723,254 122.01572,0 0,129.00787 -122.01572,0 z"
       id="path55"
       inkscape:connector-curvature="0"
       style="fill:#000000;fill-opacity:0;fill-rule:nonzero" />
    <path
       d="m 392.25723,254 122.01572,0 0,129.00787 -122.01572,0 z"
       id="path57"
       inkscape:connector-curvature="0"
       style="stroke:#ff0000;stroke-width:2;stroke-linecap:butt;stroke-linejoin:round;stroke-dasharray:8, 6" />
    <path
       d="m 412.50394,295.99213 93.00787,0 0,37.00787 -93.00787,0 z"
       id="path59"
       inkscape:connector-curvature="0"
       style="fill:#000000;fill-opacity:0;fill-rule:nonzero" />
    <path
       d="m 422.19144,318.49023 2.67187,-0.26563 q 0.23438,1.34375 0.96875,1.98438 0.75,0.625 2,0.625 1.32813,0 2,-0.5625 0.67188,-0.5625 0.67188,-1.3125 0,-0.48438 -0.28125,-0.8125 -0.28125,-0.34375 -0.98438,-0.59375 -0.48437,-0.17188 -2.20312,-0.59375 -2.20313,-0.54688 -3.09375,-1.34375 -1.26563,-1.125 -1.26563,-2.73438 0,-1.04687 0.59375,-1.95312 0.59375,-0.90625 1.70313,-1.375 1.10937,-0.46875 2.67187,-0.46875 2.5625,0 3.85938,1.125 1.29687,1.10937 1.35937,2.98437 l -2.75,0.125 q -0.17187,-1.04687 -0.75,-1.5 -0.57812,-0.46875 -1.75,-0.46875 -1.1875,0 -1.875,0.5 -0.4375,0.3125 -0.4375,0.84375 0,0.48438 0.42188,0.82813 0.51562,0.42187 2.51562,0.90625 2,0.46875 2.95313,0.98437 0.96875,0.5 1.51562,1.375 0.54688,0.875 0.54688,2.15625 0,1.17188 -0.65625,2.20313 -0.64063,1.01562 -1.82813,1.51562 -1.1875,0.48438 -2.96875,0.48438 -2.57812,0 -3.96875,-1.1875 -1.375,-1.1875 -1.64062,-3.46875 z m 15.72482,-9.17188 0,5 q 1.25,-1.48437 3.01563,-1.48437 0.89062,0 1.60937,0.34375 0.73438,0.32812 1.09375,0.84375 0.375,0.51562 0.5,1.15625 0.14063,0.625 0.14063,1.95312 l 0,5.78125 -2.60938,0 0,-5.20312 q 0,-1.54688 -0.15625,-1.96875 -0.14062,-0.42188 -0.51562,-0.65625 -0.375,-0.25 -0.9375,-0.25 -0.65625,0 -1.17188,0.3125 -0.5,0.3125 -0.73437,0.95312 -0.23438,0.64063 -0.23438,1.875 l 0,4.9375 -2.60937,0 0,-13.59375 2.60937,0 z m 10.73975,6.75 -2.35938,-0.4375 q 0.39063,-1.42187 1.35938,-2.10937 0.98437,-0.6875 2.90625,-0.6875 1.73437,0 2.59375,0.42187 0.85937,0.40625 1.20312,1.04688 0.34375,0.625 0.34375,2.32812 l -0.0312,3.04688 q 0,1.29687 0.125,1.92187 0.125,0.60938 0.46875,1.3125 l -2.57812,0 q -0.0937,-0.26562 -0.25,-0.76562 -0.0625,-0.23438 -0.0937,-0.3125 -0.65625,0.65625 -1.42188,0.98437 -0.76562,0.3125 -1.625,0.3125 -1.51562,0 -2.40625,-0.8125 -0.875,-0.82812 -0.875,-2.09375 0,-0.84375 0.39063,-1.48437 0.40625,-0.65625 1.125,-1 0.71875,-0.35938 2.07812,-0.625 1.82813,-0.32813 2.53125,-0.625 l 0,-0.26563 q 0,-0.75 -0.375,-1.0625 -0.35937,-0.32812 -1.39062,-0.32812 -0.70313,0 -1.09375,0.28125 -0.39063,0.26562 -0.625,0.95312 z m 3.48437,2.10938 q -0.5,0.17187 -1.59375,0.40625 -1.07812,0.23437 -1.40625,0.45312 -0.51562,0.35938 -0.51562,0.92188 0,0.54687 0.40625,0.95312 0.40625,0.39063 1.04687,0.39063 0.70313,0 1.34375,-0.46875 0.46875,-0.35938 0.625,-0.85938 0.0937,-0.34375 0.0937,-1.28125 l 0,-0.51562 z m 4.87571,-5.125 2.42187,0 0,1.45312 q 0.46875,-0.73437 1.28125,-1.20312 0.8125,-0.46875 1.79688,-0.46875 1.70312,0 2.90625,1.34375 1.20312,1.34375 1.20312,3.75 0,2.46875 -1.21875,3.84375 -1.20312,1.35937 -2.92187,1.35937 -0.8125,0 -1.48438,-0.3125 -0.65625,-0.32812 -1.39062,-1.125 l 0,4.96875 -2.59375,0 0,-13.60937 z m 2.57812,4.76562 q 0,1.65625 0.65625,2.45313 0.65625,0.79687 1.59375,0.79687 0.92188,0 1.51563,-0.71875 0.60937,-0.73437 0.60937,-2.40625 0,-1.54687 -0.625,-2.29687 -0.625,-0.75 -1.53125,-0.75 -0.96875,0 -1.59375,0.73437 -0.625,0.73438 -0.625,2.1875 z m 14.5835,1.95313 2.60937,0.4375 q -0.5,1.4375 -1.59375,2.1875 -1.07812,0.73437 -2.70312,0.73437 -2.5625,0 -3.79688,-1.67187 -0.96875,-1.34375 -0.96875,-3.40625 0,-2.4375 1.26563,-3.82813 1.28125,-1.39062 3.25,-1.39062 2.1875,0 3.45312,1.45312 1.28125,1.45313 1.23438,4.45313 l -6.53125,0 q 0.0156,1.15625 0.625,1.8125 0.60937,0.64062 1.5,0.64062 0.60937,0 1.03125,-0.32812 0.42187,-0.34375 0.625,-1.09375 z m 0.15625,-2.625 q -0.0312,-1.14063 -0.59375,-1.71875 -0.54688,-0.59375 -1.34375,-0.59375 -0.85938,0 -1.40625,0.625 -0.5625,0.60937 -0.54688,1.6875 l 3.89063,0 z"
       id="path61"
       inkscape:connector-curvature="0"
       style="fill:#000000;fill-rule:nonzero" />
    <path
       d="m 427.1404,377.74802 61.00787,0 0,37.0079 -61.00787,0 z"
       id="path63"
       inkscape:connector-curvature="0"
       style="fill:#000000;fill-opacity:0;fill-rule:nonzero" />
    <path
       d="m 443.96854,399.3399 0,-1.60938 5.76563,0 0,5.04688 q -1.32813,1.0625 -2.75,1.59375 -1.40625,0.53125 -2.89063,0.53125 -2,0 -3.64062,-0.85938 -1.625,-0.85937 -2.46875,-2.48437 -0.82813,-1.625 -0.82813,-3.625 0,-1.98438 0.82813,-3.70313 0.82812,-1.71875 2.39062,-2.54687 1.5625,-0.84375 3.59375,-0.84375 1.46875,0 2.65625,0.48437 1.20313,0.46875 1.875,1.32813 0.67188,0.84375 1.03125,2.21875 l -1.625,0.4375 q -0.3125,-1.03125 -0.76562,-1.625 -0.45313,-0.59375 -1.29688,-0.95313 -0.84375,-0.35937 -1.875,-0.35937 -1.23437,0 -2.14062,0.375 -0.89063,0.375 -1.45313,1 -0.54687,0.60937 -0.84375,1.34375 -0.53125,1.25 -0.53125,2.73437 0,1.8125 0.625,3.04688 0.64063,1.21875 1.82813,1.8125 1.20312,0.59375 2.54687,0.59375 1.17188,0 2.28125,-0.45313 1.10938,-0.45312 1.6875,-0.95312 l 0,-2.53125 -4,0 z m 7.91769,5.32812 0,-9.85937 1.5,0 0,1.5 q 0.57813,-1.04688 1.0625,-1.375 0.48438,-0.34375 1.07813,-0.34375 0.84375,0 1.71875,0.54687 l -0.57813,1.54688 q -0.60937,-0.35938 -1.23437,-0.35938 -0.54688,0 -0.98438,0.32813 -0.42187,0.32812 -0.60937,0.90625 -0.28125,0.89062 -0.28125,1.95312 l 0,5.15625 -1.67188,0 z m 6.24393,-11.6875 0,-1.90625 1.67188,0 0,1.90625 -1.67188,0 z m 0,11.6875 0,-9.85937 1.67188,0 0,9.85937 -1.67188,0 z m 4.12918,3.78125 0,-13.64062 1.53125,0 0,1.28125 q 0.53125,-0.75 1.20313,-1.125 0.6875,-0.375 1.64062,-0.375 1.26563,0 2.23438,0.65625 0.96875,0.64062 1.45312,1.82812 0.5,1.1875 0.5,2.59375 0,1.51563 -0.54687,2.73438 -0.54688,1.20312 -1.57813,1.84375 -1.03125,0.64062 -2.17187,0.64062 -0.84375,0 -1.51563,-0.34375 -0.65625,-0.35937 -1.07812,-0.89062 l 0,4.79687 -1.67188,0 z m 1.51563,-8.65625 q 0,1.90625 0.76562,2.8125 0.78125,0.90625 1.875,0.90625 1.10938,0 1.89063,-0.9375 0.79687,-0.9375 0.79687,-2.92187 0,-1.875 -0.78125,-2.8125 -0.76562,-0.9375 -1.84375,-0.9375 -1.0625,0 -1.89062,1 -0.8125,1 -0.8125,2.89062 z"
       id="path65"
       inkscape:connector-curvature="0"
       style="fill:#000000;fill-rule:nonzero" />
    <path
       d="m 391,252.50394 10.01575,0 0,8 -10.01575,0 z"
       id="path67"
       inkscape:connector-curvature="0"
       style="fill:#ffff00;fill-rule:nonzero" />
    <path
       d="m 391,252.50394 10.01575,0 0,8 -10.01575,0 z"
       id="path69"
       inkscape:connector-curvature="0"
       style="stroke:#ff0000;stroke-width:1;stroke-linecap:butt;stroke-linejoin:round" />
    <path
       d="m 505.5118,252.50394 10.01578,0 0,8 -10.01578,0 z"
       id="path71"
       inkscape:connector-curvature="0"
       style="fill:#ffff00;fill-rule:nonzero" />
    <path
       d="m 505.5118,252.50394 10.01578,0 0,8 -10.01578,0 z"
       id="path73"
       inkscape:connector-curvature="0"
       style="stroke:#ff0000;stroke-width:1;stroke-linecap:butt;stroke-linejoin:round" />
    <path
       d="m 505.5092,377.74802 10.01578,0 0,8 -10.01578,0 z"
       id="path75"
       inkscape:connector-curvature="0"
       style="fill:#ffff00;fill-rule:nonzero" />
    <path
       d="m 505.5092,377.74802 10.01578,0 0,8 -10.01578,0 z"
       id="path77"
       inkscape:connector-curvature="0"
       style="stroke:#ff0000;stroke-width:1;stroke-linecap:butt;stroke-linejoin:round" />
    <path
       d="m 448.25592,252.50394 10.01575,0 0,8 -10.01575,0 z"
       id="path79"
       inkscape:connector-curvature="0"
       style="fill:#ffff00;fill-rule:nonzero" />
    <path
       d="m 448.25592,252.50394 10.01575,0 0,8 -10.01575,0 z"
       id="path81"
       inkscape:connector-curvature="0"
       style="stroke:#ff0000;stroke-width:1;stroke-linecap:butt;stroke-linejoin:round" />
    <path
       d="m 448.2546,377.74802 10.01575,0 0,8 -10.01575,0 z"
       id="path83"
       inkscape:connector-curvature="0"
       style="fill:#ffff00;fill-rule:nonzero" />
    <path
       d="m 448.2546,377.74802 10.01575,0 0,8 -10.01575,0 z"
       id="path85"
       inkscape:connector-curvature="0"
       style="stroke:#ff0000;stroke-width:1;stroke-linecap:butt;stroke-linejoin:round" />
    <path
       d="m 391,311.25592 10.01575,0 0,8 -10.01575,0 z"
       id="path87"
       inkscape:connector-curvature="0"
       style="fill:#ffff00;fill-rule:nonzero" />
    <path
       d="m 391,311.25592 10.01575,0 0,8 -10.01575,0 z"
       id="path89"
       inkscape:connector-curvature="0"
       style="stroke:#ff0000;stroke-width:1;stroke-linecap:butt;stroke-linejoin:round" />
    <path
       d="m 505.5118,311.25592 10.01578,0 0,8 -10.01578,0 z"
       id="path91"
       inkscape:connector-curvature="0"
       style="fill:#ffff00;fill-rule:nonzero" />
    <path
       d="m 505.5118,311.25592 10.01578,0 0,8 -10.01578,0 z"
       id="path93"
       inkscape:connector-curvature="0"
       style="stroke:#ff0000;stroke-width:1;stroke-linecap:butt;stroke-linejoin:round" />
    <path
       d="m 390.9987,377.74802 10.01575,0 0,8 -10.01575,0 z"
       id="path95"
       inkscape:connector-curvature="0"
       style="fill:#ffff00;fill-rule:nonzero" />
    <path
       d="m 390.9987,377.74802 10.01575,0 0,8 -10.01575,0 z"
       id="path97"
       inkscape:connector-curvature="0"
       style="stroke:#ff0000;stroke-width:1;stroke-linecap:butt;stroke-linejoin:round" />
    <path
       d="m 514.27295,363.24408 61.00787,0 0,37.0079 -61.00787,0 z"
       id="path99"
       inkscape:connector-curvature="0"
       style="fill:#000000;fill-opacity:0;fill-rule:nonzero" />
    <path
       d="m 523.8042,391.05472 1.70313,0.15625 q -0.0156,0.57812 0.14062,0.85937 0.15625,0.29688 0.5,0.45313 0.45313,0.20312 1.17188,0.20312 1.53125,0 2.20312,-0.79687 0.4375,-0.51563 0.79688,-2.29688 l 0.17187,-0.79687 q -1.3125,1.32812 -2.78125,1.32812 -1.5,0 -2.51562,-1.09375 -1,-1.10937 -1,-3.125 0,-1.65625 0.79687,-3.04687 0.79688,-1.39063 1.89063,-2.09375 1.09375,-0.71875 2.25,-0.71875 1.9375,0 2.98437,1.84375 l 0.34375,-1.625 1.53125,0 -1.98437,9.51562 q -0.3125,1.5625 -0.84375,2.4375 -0.53125,0.89063 -1.48438,1.35938 -0.9375,0.48437 -2.17187,0.48437 -1.1875,0 -2.04688,-0.3125 -0.84375,-0.29687 -1.28125,-0.89062 -0.42187,-0.57813 -0.42187,-1.34375 0,-0.23438 0.0469,-0.5 z m 2.10938,-5.25 q 0,1.01562 0.1875,1.51562 0.28125,0.71875 0.79687,1.09375 0.51563,0.375 1.14063,0.375 0.82812,0 1.64062,-0.57812 0.82813,-0.57813 1.32813,-1.79688 0.5,-1.21875 0.5,-2.3125 0,-1.21875 -0.67188,-1.9375 -0.67187,-0.71875 -1.65625,-0.71875 -0.625,0 -1.20312,0.32813 -0.5625,0.32812 -1.0625,1 -0.5,0.67187 -0.75,1.60937 -0.25,0.9375 -0.25,1.42188 z m 8.3601,4.35937 2.0625,-9.85937 1.48438,0 -0.42188,2.01562 q 0.76563,-1.14062 1.48438,-1.6875 0.73437,-0.54687 1.5,-0.54687 0.5,0 1.23437,0.35937 l -0.6875,1.5625 q -0.4375,-0.3125 -0.95312,-0.3125 -0.875,0 -1.8125,0.98438 -0.92188,0.98437 -1.45313,3.53125 l -0.82812,3.95312 -1.60938,0 z m 8.60333,-11.70312 0.40625,-1.89063 1.65625,0 -0.39062,1.89063 -1.67188,0 z m -2.45312,11.70312 2.0625,-9.85937 1.6875,0 -2.0625,9.85937 -1.6875,0 z m 3.39477,3.78125 2.84375,-13.64062 1.54688,0 -0.28125,1.375 q 0.85937,-0.89063 1.53125,-1.23438 0.6875,-0.35937 1.45312,-0.35937 1.40625,0 2.32813,1.03125 0.9375,1.01562 0.9375,2.9375 0,1.53125 -0.51563,2.79687 -0.51562,1.26563 -1.26562,2.04688 -0.73438,0.76562 -1.5,1.125 -0.75,0.35937 -1.54688,0.35937 -1.76562,0 -2.75,-1.79687 l -1.10937,5.35937 -1.67188,0 z m 3.3125,-7.8125 q 0,1.10938 0.15625,1.53125 0.23438,0.60938 0.76563,0.98438 0.53125,0.35937 1.21875,0.35937 1.45312,0 2.34375,-1.625 0.89062,-1.625 0.89062,-3.32812 0,-1.25 -0.60937,-1.92188 -0.59375,-0.6875 -1.48438,-0.6875 -0.64062,0 -1.1875,0.34375 -0.54687,0.32813 -1.01562,1 -0.46875,0.67188 -0.78125,1.65625 -0.29688,0.96875 -0.29688,1.6875 z m 8.03199,0.65625 1.6875,-0.0937 q 0,0.71875 0.21875,1.23438 0.21875,0.51562 0.8125,0.84375 0.60937,0.3125 1.40625,0.3125 1.10937,0 1.67187,-0.4375 0.5625,-0.45313 0.5625,-1.04688 0,-0.4375 -0.34375,-0.82812 -0.34375,-0.39063 -1.67187,-0.95313 -1.32813,-0.57812 -1.70313,-0.8125 -0.625,-0.375 -0.9375,-0.89062 -0.3125,-0.51563 -0.3125,-1.1875 0,-1.17188 0.92188,-2 0.9375,-0.84375 2.60937,-0.84375 1.84375,0 2.8125,0.85937 0.96875,0.85938 1.01563,2.26563 l -1.64063,0.10937 q -0.0469,-0.89062 -0.64062,-1.40625 -0.59375,-0.53125 -1.67188,-0.53125 -0.875,0 -1.35937,0.40625 -0.48438,0.39063 -0.48438,0.85938 0,0.46875 0.42188,0.8125 0.28125,0.25 1.4375,0.75 1.9375,0.82812 2.4375,1.3125 0.79687,0.76562 0.79687,1.875 0,0.73437 -0.45312,1.4375 -0.45313,0.70312 -1.375,1.125 -0.92188,0.42187 -2.17188,0.42187 -1.70312,0 -2.90625,-0.84375 -1.20312,-0.84375 -1.14062,-2.75 z"
       id="path101"
       inkscape:connector-curvature="0"
       style="fill:#000000;fill-rule:nonzero" />
  </g>
</svg>
