<?xml version="1.0" standalone="yes"?>

<svg version="1.1" viewBox="0.0 0.0 960.0 720.0" fill="none" stroke="none" stroke-linecap="square" stroke-miterlimit="10" xmlns="http://www.w3.org/2000/svg" xmlns:xlink="http://www.w3.org/1999/xlink"><clipPath id="p.0"><path d="m0 0l960.0 0l0 720.0l-960.0 0l0 -720.0z" clip-rule="nonzero"></path></clipPath><g clip-path="url(#p.0)"><path fill="#000000" fill-opacity="0.0" d="m0 0l960.0 0l0 720.0l-960.0 0z" fill-rule="nonzero"></path><path fill="#d9d9d9" d="m160.50394 110.0l638.9922 0l0 430.99213l-638.9922 0z" fill-rule="nonzero"></path><path stroke="#000000" stroke-width="2.0" stroke-linejoin="round" stroke-linecap="butt" d="m160.50394 110.0l638.9922 0l0 430.99213l-638.9922 0z" fill-rule="nonzero"></path><path fill="#000000" fill-opacity="0.0" d="m160.50394 72.99213l93.00787 0l0 37.007874l-93.00787 0z" fill-rule="nonzero"></path><path fill="#000000" d="m170.19144 95.49025l2.671875 -0.265625q0.234375 1.34375 0.96875 1.984375q0.75 0.625 2.0 0.625q1.328125 0 2.0 -0.5625q0.671875 -0.5625 0.671875 -1.3125q0 -0.484375 -0.28125 -0.8125q-0.28125 -0.34375 -0.984375 -0.59375q-0.484375 -0.171875 -2.203125 -0.59375q-2.203125 -0.546875 -3.09375 -1.34375q-1.265625 -1.125 -1.265625 -2.734375q0 -1.046875 0.59375 -1.953125q0.59375 -0.90625 1.703125 -1.375q1.109375 -0.46875 2.671875 -0.46875q2.5625 0 3.859375 1.125q1.296875 1.109375 1.359375 2.984375l-2.75 0.125q-0.171875 -1.046875 -0.75 -1.5q-0.578125 -0.46875 -1.75 -0.46875q-1.1875 0 -1.875 0.5q-0.4375 0.3125 -0.4375 0.84375q0 0.484375 0.421875 0.828125q0.515625 0.421875 2.515625 0.90625q2.0 0.46875 2.953125 0.984375q0.96875 0.5 1.515625 1.375q0.546875 0.875 0.546875 2.15625q0 1.171875 -0.65625 2.203125q-0.640625 1.015625 -1.828125 1.515625q-1.1875 0.484375 -2.96875 0.484375q-2.578125 0 -3.96875 -1.1875q-1.375 -1.1875 -1.640625 -3.46875zm21.709198 -2.515625l-2.5625 0.46875q-0.140625 -0.78125 -0.59375 -1.171875q-0.453125 -0.390625 -1.1875 -0.390625q-0.984375 0 -1.5625 0.671875q-0.578125 0.671875 -0.578125 2.25q0 1.765625 0.578125 2.484375q0.59375 0.71875 1.59375 0.71875q0.75 0 1.21875 -0.421875q0.46875 -0.421875 0.671875 -1.453125l2.546875 0.4375q-0.390625 1.765625 -1.53125 2.671875q-1.125 0.890625 -3.03125 0.890625q-2.15625 0 -3.453125 -1.359375q-1.28125 -1.359375 -1.28125 -3.78125q0 -2.4375 1.296875 -3.796875q1.296875 -1.359375 3.484375 -1.359375q1.796875 0 2.859375 0.78125q1.0625 0.765625 1.53125 2.359375zm7.485092 3.796875l2.609375 0.4375q-0.5 1.4375 -1.59375 2.1875q-1.078125 0.734375 -2.703125 0.734375q-2.5625 0 -3.796875 -1.671875q-0.96875 -1.34375 -0.96875 -3.40625q0 -2.4375 1.265625 -3.828125q1.28125 -1.390625 3.25 -1.390625q2.1875 0 3.453125 1.453125q1.28125 1.453125 1.234375 4.453125l-6.53125 0q0.015625 1.15625 0.625 1.8125q0.609375 0.640625 1.5 0.640625q0.609375 0 1.03125 -0.328125q0.421875 -0.34375 0.625 -1.09375zm0.15625 -2.625q-0.03125 -1.140625 -0.59375 -1.71875q-0.546875 -0.59375 -1.34375 -0.59375q-0.859375 0 -1.40625 0.625q-0.5625 0.609375 -0.546875 1.6875l3.890625 0zm13.485092 5.765625l-2.609375 0l0 -5.03125q0 -1.59375 -0.171875 -2.0625q-0.15625 -0.46875 -0.53125 -0.71875q-0.375 -0.265625 -0.90625 -0.265625q-0.6875 0 -1.234375 0.375q-0.53125 0.359375 -0.734375 0.984375q-0.1875 0.609375 -0.1875 2.25l0 4.46875l-2.609375 0l0 -9.859375l2.421875 0l0 1.453125q1.296875 -1.671875 3.25 -1.671875q0.859375 0 1.578125 0.3125q0.71875 0.3125 1.078125 0.796875q0.359375 0.484375 0.5 1.09375q0.15625 0.609375 0.15625 1.75l0 6.125zm8.130356 -3.140625l2.609375 0.4375q-0.5 1.4375 -1.59375 2.1875q-1.078125 0.734375 -2.703125 0.734375q-2.5625 0 -3.796875 -1.671875q-0.96875 -1.34375 -0.96875 -3.40625q0 -2.4375 1.265625 -3.828125q1.28125 -1.390625 3.25 -1.390625q2.1875 0 3.453125 1.453125q1.28125 1.453125 1.234375 4.453125l-6.53125 0q0.015625 1.15625 0.625 1.8125q0.609375 0.640625 1.5 0.640625q0.609375 0 1.03125 -0.328125q0.421875 -0.34375 0.625 -1.09375zm0.15625 -2.625q-0.03125 -1.140625 -0.59375 -1.71875q-0.546875 -0.59375 -1.34375 -0.59375q-0.859375 0 -1.40625 0.625q-0.5625 0.609375 -0.546875 1.6875l3.890625 0z" fill-rule="nonzero"></path><path fill="#000000" fill-opacity="0.0" d="m32.755905 415.01575l359.49603 0l0 254.99213l-359.49603 0z" fill-rule="nonzero"></path><path stroke="#000000" stroke-width="2.0" stroke-linejoin="round" stroke-linecap="butt" d="m32.755905 415.01575l359.49603 0l0 254.99213l-359.49603 0z" fill-rule="nonzero"></path><path fill="#000000" fill-opacity="0.0" d="m37.496063 383.00787l128.50394 0l0 37.007874l-128.50394 0z" fill-rule="nonzero"></path><path fill="#000000" d="m51.35544 409.9279l-4.875 -13.59375l2.984375 0l3.4375 10.0625l3.328125 -10.0625l2.921875 0l-4.875 13.59375l-2.921875 0zm8.943573 -11.1875l0 -2.40625l2.609375 0l0 2.40625l-2.609375 0zm0 11.1875l0 -9.859375l2.609375 0l0 9.859375l-2.609375 0zm10.886429 -3.140625l2.609375 0.4375q-0.5 1.4375 -1.59375 2.1875q-1.078125 0.734375 -2.703125 0.734375q-2.5625 0 -3.796875 -1.671875q-0.96875 -1.34375 -0.96875 -3.40625q0 -2.4375 1.265625 -3.828125q1.28125 -1.390625 3.25 -1.390625q2.1875 0 3.453125 1.453125q1.28125 1.453125 1.234375 4.453125l-6.53125 0q0.015625 1.15625 0.625 1.8125q0.609375 0.640625 1.5 0.640625q0.609375 0 1.03125 -0.328125q0.421875 -0.34375 0.625 -1.09375zm0.15625 -2.625q-0.03125 -1.140625 -0.59375 -1.71875q-0.546875 -0.59375 -1.34375 -0.59375q-0.859375 0 -1.40625 0.625q-0.5625 0.609375 -0.546875 1.6875l3.890625 0zm6.360092 5.765625l-3.125 -9.859375l2.53125 0l1.859375 6.46875l1.6875 -6.46875l2.515625 0l1.640625 6.46875l1.890625 -6.46875l2.5625 0l-3.15625 9.859375l-2.515625 0l-1.6875 -6.34375l-1.671875 6.34375l-2.53125 0zm11.995804 -4.421875l2.671875 -0.265625q0.234375 1.34375 0.96875 1.984375q0.75 0.625 2.0 0.625q1.328125 0 2.0 -0.5625q0.671875 -0.5625 0.671875 -1.3125q0 -0.484375 -0.28125 -0.8125q-0.28125 -0.34375 -0.984375 -0.59375q-0.484375 -0.171875 -2.203125 -0.59375q-2.203125 -0.546875 -3.09375 -1.34375q-1.265625 -1.125 -1.265625 -2.734375q0 -1.046875 0.59375 -1.953125q0.59375 -0.90625 1.703125 -1.375q1.109375 -0.46875 2.671875 -0.46875q2.5625 0 3.859375 1.125q1.296875 1.109375 1.359375 2.984375l-2.75 0.125q-0.171875 -1.046875 -0.75 -1.5q-0.578125 -0.46875 -1.75 -0.46875q-1.1875 0 -1.875 0.5q-0.4375 0.3125 -0.4375 0.84375q0 0.484375 0.421875 0.828125q0.515625 0.421875 2.515625 0.90625q2.0 0.46875 2.953125 0.984375q0.96875 0.5 1.515625 1.375q0.546875 0.875 0.546875 2.15625q0 1.171875 -0.65625 2.203125q-0.640625 1.015625 -1.828125 1.515625q-1.1875 0.484375 -2.96875 0.484375q-2.578125 0 -3.96875 -1.1875q-1.375 -1.1875 -1.640625 -3.46875zm21.709198 -2.515625l-2.5625 0.46875q-0.140625 -0.78125 -0.59375 -1.171875q-0.453125 -0.390625 -1.1875 -0.390625q-0.984375 0 -1.5625 0.671875q-0.578125 0.671875 -0.578125 2.25q0 1.765625 0.578125 2.484375q0.59375 0.71875 1.59375 0.71875q0.75 0 1.21875 -0.421875q0.46875 -0.421875 0.671875 -1.453125l2.546875 0.4375q-0.390625 1.765625 -1.53125 2.671875q-1.125 0.890625 -3.03125 0.890625q-2.15625 0 -3.453125 -1.359375q-1.28125 -1.359375 -1.28125 -3.78125q0 -2.4375 1.296875 -3.796875q1.296875 -1.359375 3.484375 -1.359375q1.796875 0 2.859375 0.78125q1.0625 0.765625 1.53125 2.359375zm7.485092 3.796875l2.609375 0.4375q-0.5 1.4375 -1.59375 2.1875q-1.078125 0.734375 -2.703125 0.734375q-2.5625 0 -3.796875 -1.671875q-0.96875 -1.34375 -0.96875 -3.40625q0 -2.4375 1.265625 -3.828125q1.28125 -1.390625 3.25 -1.390625q2.1875 0 3.453125 1.453125q1.28125 1.453125 1.234375 4.453125l-6.53125 0q0.015625 1.15625 0.625 1.8125q0.609375 0.640625 1.5 0.640625q0.609375 0 1.03125 -0.328125q0.421875 -0.34375 0.625 -1.09375zm0.15625 -2.625q-0.03125 -1.140625 -0.59375 -1.71875q-0.546875 -0.59375 -1.34375 -0.59375q-0.859375 0 -1.40625 0.625q-0.5625 0.609375 -0.546875 1.6875l3.890625 0zm13.485092 5.765625l-2.609375 0l0 -5.03125q0 -1.59375 -0.171875 -2.0625q-0.15625 -0.46875 -0.53125 -0.71875q-0.375 -0.265625 -0.90625 -0.265625q-0.6875 0 -1.234375 0.375q-0.53125 0.359375 -0.734375 0.984375q-0.1875 0.609375 -0.1875 2.25l0 4.46875l-2.609375 0l0 -9.859375l2.421875 0l0 1.453125q1.296875 -1.671875 3.25 -1.671875q0.859375 0 1.578125 0.3125q0.71875 0.3125 1.078125 0.796875q0.359375 0.484375 0.5 1.09375q0.15625 0.609375 0.15625 1.75l0 6.125zm8.130356 -3.140625l2.609375 0.4375q-0.5 1.4375 -1.59375 2.1875q-1.078125 0.734375 -2.703125 0.734375q-2.5625 0 -3.796875 -1.671875q-0.96875 -1.34375 -0.96875 -3.40625q0 -2.4375 1.265625 -3.828125q1.28125 -1.390625 3.25 -1.390625q2.1875 0 3.453125 1.453125q1.28125 1.453125 1.234375 4.453125l-6.53125 0q0.015625 1.15625 0.625 1.8125q0.609375 0.640625 1.5 0.640625q0.609375 0 1.03125 -0.328125q0.421875 -0.34375 0.625 -1.09375zm0.15625 -2.625q-0.03125 -1.140625 -0.59375 -1.71875q-0.546875 -0.59375 -1.34375 -0.59375q-0.859375 0 -1.40625 0.625q-0.5625 0.609375 -0.546875 1.6875l3.890625 0z" fill-rule="nonzero"></path><path fill="#000000" fill-opacity="0.0" d="m295.25986 159.50394l359.49606 0l0 254.99213l-359.49606 0z" fill-rule="nonzero"></path><path stroke="#000000" stroke-width="1.0" stroke-linejoin="round" stroke-linecap="butt" stroke-dasharray="4.0,3.0" d="m295.25986 159.50394l359.49606 0l0 254.99213l-359.49606 0z" fill-rule="nonzero"></path><path fill="#000000" fill-opacity="0.0" d="m31.0 423.83203l262.99213 -262.83466" fill-rule="nonzero"></path><path stroke="#000000" stroke-width="1.0" stroke-linejoin="round" stroke-linecap="butt" stroke-dasharray="1.0,3.0" d="m31.0 423.83203l262.99213 -262.83466" fill-rule="nonzero"></path><path fill="#000000" fill-opacity="0.0" d="m392.0 415.83203l262.77167 -256.31494" fill-rule="nonzero"></path><path stroke="#000000" stroke-width="1.0" stroke-linejoin="round" stroke-linecap="butt" stroke-dasharray="1.0,3.0" d="m392.0 415.83203l262.77167 -256.31494" fill-rule="nonzero"></path><path fill="#000000" fill-opacity="0.0" d="m394.0 667.83203l260.0315 -253.32285" fill-rule="nonzero"></path><path stroke="#000000" stroke-width="1.0" stroke-linejoin="round" stroke-linecap="butt" stroke-dasharray="1.0,3.0" d="m394.0 667.83203l260.0315 -253.32285" fill-rule="nonzero"></path><path fill="#000000" fill-opacity="0.0" d="m33.0 670.83203l262.26773 -256.34647" fill-rule="nonzero"></path><path stroke="#000000" stroke-width="1.0" stroke-linejoin="round" stroke-linecap="butt" stroke-dasharray="1.0,3.0" d="m33.0 670.83203l262.26773 -256.34647" fill-rule="nonzero"></path><path fill="#c9daf8" d="m335.0 321.00787l61.007874 -129.00787l61.007874 129.00787z" fill-rule="nonzero"></path><path stroke="#000000" stroke-width="2.0" stroke-linejoin="round" stroke-linecap="butt" d="m335.0 321.00787l61.007874 -129.00787l61.007874 129.00787z" fill-rule="nonzero"></path><path fill="#fff2cc" d="m393.0 318.50394l0 0c0 -35.624542 27.314148 -64.50394 61.007874 -64.50394l0 0c16.180298 0 31.697876 6.795929 43.13907 18.892761c11.441223 12.096832 17.868805 28.503662 17.868805 45.611176l0 0c0 35.624542 -27.314148 64.50394 -61.007874 64.50394l0 0c-33.693726 0 -61.007874 -28.879395 -61.007874 -64.50394z" fill-rule="nonzero"></path><path stroke="#000000" stroke-width="2.0" stroke-linejoin="round" stroke-linecap="butt" d="m393.0 318.50394l0 0c0 -35.624542 27.314148 -64.50394 61.007874 -64.50394l0 0c16.180298 0 31.697876 6.795929 43.13907 18.892761c11.441223 12.096832 17.868805 28.503662 17.868805 45.611176l0 0c0 35.624542 -27.314148 64.50394 -61.007874 64.50394l0 0c-33.693726 0 -61.007874 -28.879395 -61.007874 -64.50394z" fill-rule="nonzero"></path><path fill="#000000" fill-opacity="0.0" d="m392.25723 254.0l122.01572 0l0 129.00787l-122.01572 0z" fill-rule="nonzero"></path><path stroke="#ff0000" stroke-width="2.0" stroke-linejoin="round" stroke-linecap="butt" stroke-dasharray="8.0,6.0" d="m392.25723 254.0l122.01572 0l0 129.00787l-122.01572 0z" fill-rule="nonzero"></path><path fill="#000000" fill-opacity="0.0" d="m412.50394 295.99213l93.00787 0l0 37.007874l-93.00787 0z" fill-rule="nonzero"></path><path fill="#000000" d="m422.19144 318.49023l2.671875 -0.265625q0.234375 1.34375 0.96875 1.984375q0.75 0.625 2.0 0.625q1.328125 0 2.0 -0.5625q0.671875 -0.5625 0.671875 -1.3125q0 -0.484375 -0.28125 -0.8125q-0.28125 -0.34375 -0.984375 -0.59375q-0.484375 -0.171875 -2.203125 -0.59375q-2.203125 -0.546875 -3.09375 -1.34375q-1.265625 -1.125 -1.265625 -2.734375q0 -1.046875 0.59375 -1.953125q0.59375 -0.90625 1.703125 -1.375q1.109375 -0.46875 2.671875 -0.46875q2.5625 0 3.859375 1.125q1.296875 1.109375 1.359375 2.984375l-2.75 0.125q-0.171875 -1.046875 -0.75 -1.5q-0.578125 -0.46875 -1.75 -0.46875q-1.1875 0 -1.875 0.5q-0.4375 0.3125 -0.4375 0.84375q0 0.484375 0.421875 0.828125q0.515625 0.421875 2.515625 0.90625q2.0 0.46875 2.953125 0.984375q0.96875 0.5 1.515625 1.375q0.546875 0.875 0.546875 2.15625q0 1.171875 -0.65625 2.203125q-0.640625 1.015625 -1.828125 1.515625q-1.1875 0.484375 -2.96875 0.484375q-2.578125 0 -3.96875 -1.1875q-1.375 -1.1875 -1.640625 -3.46875zm15.724823 -9.171875l0 5.0q1.25 -1.484375 3.015625 -1.484375q0.890625 0 1.609375 0.34375q0.734375 0.328125 1.09375 0.84375q0.375 0.515625 0.5 1.15625q0.140625 0.625 0.140625 1.953125l0 5.78125l-2.609375 0l0 -5.203125q0 -1.546875 -0.15625 -1.96875q-0.140625 -0.421875 -0.515625 -0.65625q-0.375 -0.25 -0.9375 -0.25q-0.65625 0 -1.171875 0.3125q-0.5 0.3125 -0.734375 0.953125q-0.234375 0.640625 -0.234375 1.875l0 4.9375l-2.609375 0l0 -13.59375l2.609375 0zm10.739746 6.75l-2.359375 -0.4375q0.390625 -1.421875 1.359375 -2.109375q0.984375 -0.6875 2.90625 -0.6875q1.734375 0 2.59375 0.421875q0.859375 0.40625 1.203125 1.046875q0.34375 0.625 0.34375 2.328125l-0.03125 3.046875q0 1.296875 0.125 1.921875q0.125 0.609375 0.46875 1.3125l-2.578125 0q-0.09375 -0.265625 -0.25 -0.765625q-0.0625 -0.234375 -0.09375 -0.3125q-0.65625 0.65625 -1.421875 0.984375q-0.765625 0.3125 -1.625 0.3125q-1.515625 0 -2.40625 -0.8125q-0.875 -0.828125 -0.875 -2.09375q0 -0.84375 0.390625 -1.484375q0.40625 -0.65625 1.125 -1.0q0.71875 -0.359375 2.078125 -0.625q1.828125 -0.328125 2.53125 -0.625l0 -0.265625q0 -0.75 -0.375 -1.0625q-0.359375 -0.328125 -1.390625 -0.328125q-0.703125 0 -1.09375 0.28125q-0.390625 0.265625 -0.625 0.953125zm3.484375 2.109375q-0.5 0.171875 -1.59375 0.40625q-1.078125 0.234375 -1.40625 0.453125q-0.515625 0.359375 -0.515625 0.921875q0 0.546875 0.40625 0.953125q0.40625 0.390625 1.046875 0.390625q0.703125 0 1.34375 -0.46875q0.46875 -0.359375 0.625 -0.859375q0.09375 -0.34375 0.09375 -1.28125l0 -0.515625zm4.875702 -5.125l2.421875 0l0 1.453125q0.46875 -0.734375 1.28125 -1.203125q0.8125 -0.46875 1.796875 -0.46875q1.703125 0 2.90625 1.34375q1.203125 1.34375 1.203125 3.75q0 2.46875 -1.21875 3.84375q-1.203125 1.359375 -2.921875 1.359375q-0.8125 0 -1.484375 -0.3125q-0.65625 -0.328125 -1.390625 -1.125l0 4.96875l-2.59375 0l0 -13.609375zm2.578125 4.765625q0 1.65625 0.65625 2.453125q0.65625 0.796875 1.59375 0.796875q0.921875 0 1.515625 -0.71875q0.609375 -0.734375 0.609375 -2.40625q0 -1.546875 -0.625 -2.296875q-0.625 -0.75 -1.53125 -0.75q-0.96875 0 -1.59375 0.734375q-0.625 0.734375 -0.625 2.1875zm14.583496 1.953125l2.609375 0.4375q-0.5 1.4375 -1.59375 2.1875q-1.078125 0.734375 -2.703125 0.734375q-2.5625 0 -3.796875 -1.671875q-0.96875 -1.34375 -0.96875 -3.40625q0 -2.4375 1.265625 -3.828125q1.28125 -1.390625 3.25 -1.390625q2.1875 0 3.453125 1.453125q1.28125 1.453125 1.234375 4.453125l-6.53125 0q0.015625 1.15625 0.625 1.8125q0.609375 0.640625 1.5 0.640625q0.609375 0 1.03125 -0.328125q0.421875 -0.34375 0.625 -1.09375zm0.15625 -2.625q-0.03125 -1.140625 -0.59375 -1.71875q-0.546875 -0.59375 -1.34375 -0.59375q-0.859375 0 -1.40625 0.625q-0.5625 0.609375 -0.546875 1.6875l3.890625 0z" fill-rule="nonzero"></path><path fill="#000000" fill-opacity="0.0" d="m427.1404 377.74802l61.007874 0l0 37.007904l-61.007874 0z" fill-rule="nonzero"></path><path fill="#000000" d="m443.96854 399.3399l0 -1.609375l5.765625 0l0 5.046875q-1.328125 1.0625 -2.75 1.59375q-1.40625 0.53125 -2.890625 0.53125q-2.0 0 -3.640625 -0.859375q-1.625 -0.859375 -2.46875 -2.484375q-0.828125 -1.625 -0.828125 -3.625q0 -1.984375 0.828125 -3.703125q0.828125 -1.71875 2.390625 -2.546875q1.5625 -0.84375 3.59375 -0.84375q1.46875 0 2.65625 0.484375q1.203125 0.46875 1.875 1.328125q0.671875 0.84375 1.03125 2.21875l-1.625 0.4375q-0.3125 -1.03125 -0.765625 -1.625q-0.453125 -0.59375 -1.296875 -0.953125q-0.84375 -0.359375 -1.875 -0.359375q-1.234375 0 -2.140625 0.375q-0.890625 0.375 -1.453125 1.0q-0.546875 0.609375 -0.84375 1.34375q-0.53125 1.25 -0.53125 2.734375q0 1.8125 0.625 3.046875q0.640625 1.21875 1.828125 1.8125q1.203125 0.59375 2.546875 0.59375q1.171875 0 2.28125 -0.453125q1.109375 -0.453125 1.6875 -0.953125l0 -2.53125l-4.0 0zm7.917694 5.328125l0 -9.859375l1.5 0l0 1.5q0.578125 -1.046875 1.0625 -1.375q0.484375 -0.34375 1.078125 -0.34375q0.84375 0 1.71875 0.546875l-0.578125 1.546875q-0.609375 -0.359375 -1.234375 -0.359375q-0.546875 0 -0.984375 0.328125q-0.421875 0.328125 -0.609375 0.90625q-0.28125 0.890625 -0.28125 1.953125l0 5.15625l-1.671875 0zm6.243927 -11.6875l0 -1.90625l1.671875 0l0 1.90625l-1.671875 0zm0 11.6875l0 -9.859375l1.671875 0l0 9.859375l-1.671875 0zm4.129181 3.78125l0 -13.640625l1.53125 0l0 1.28125q0.53125 -0.75 1.203125 -1.125q0.6875 -0.375 1.640625 -0.375q1.265625 0 2.234375 0.65625q0.96875 0.640625 1.453125 1.828125q0.5 1.1875 0.5 2.59375q0 1.515625 -0.546875 2.734375q-0.546875 1.203125 -1.578125 1.84375q-1.03125 0.640625 -2.171875 0.640625q-0.84375 0 -1.515625 -0.34375q-0.65625 -0.359375 -1.078125 -0.890625l0 4.796875l-1.671875 0zm1.515625 -8.65625q0 1.90625 0.765625 2.8125q0.78125 0.90625 1.875 0.90625q1.109375 0 1.890625 -0.9375q0.796875 -0.9375 0.796875 -2.921875q0 -1.875 -0.78125 -2.8125q-0.765625 -0.9375 -1.84375 -0.9375q-1.0625 0 -1.890625 1.0q-0.8125 1.0 -0.8125 2.890625z" fill-rule="nonzero"></path><path fill="#ffff00" d="m391.0 252.50394l10.015747 0l0 8.0l-10.015747 0z" fill-rule="nonzero"></path><path stroke="#ff0000" stroke-width="1.0" stroke-linejoin="round" stroke-linecap="butt" d="m391.0 252.50394l10.015747 0l0 8.0l-10.015747 0z" fill-rule="nonzero"></path><path fill="#ffff00" d="m505.5118 252.50394l10.015778 0l0 8.0l-10.015778 0z" fill-rule="nonzero"></path><path stroke="#ff0000" stroke-width="1.0" stroke-linejoin="round" stroke-linecap="butt" d="m505.5118 252.50394l10.015778 0l0 8.0l-10.015778 0z" fill-rule="nonzero"></path><path fill="#ffff00" d="m505.5092 377.74802l10.015778 0l0 8.0l-10.015778 0z" fill-rule="nonzero"></path><path stroke="#ff0000" stroke-width="1.0" stroke-linejoin="round" stroke-linecap="butt" d="m505.5092 377.74802l10.015778 0l0 8.0l-10.015778 0z" fill-rule="nonzero"></path><path fill="#ffff00" d="m448.25592 252.50394l10.015747 0l0 8.0l-10.015747 0z" fill-rule="nonzero"></path><path stroke="#ff0000" stroke-width="1.0" stroke-linejoin="round" stroke-linecap="butt" d="m448.25592 252.50394l10.015747 0l0 8.0l-10.015747 0z" fill-rule="nonzero"></path><path fill="#ffff00" d="m448.2546 377.74802l10.015747 0l0 8.0l-10.015747 0z" fill-rule="nonzero"></path><path stroke="#ff0000" stroke-width="1.0" stroke-linejoin="round" stroke-linecap="butt" d="m448.2546 377.74802l10.015747 0l0 8.0l-10.015747 0z" fill-rule="nonzero"></path><path fill="#ffff00" d="m391.0 311.25592l10.015747 0l0 8.0l-10.015747 0z" fill-rule="nonzero"></path><path stroke="#ff0000" stroke-width="1.0" stroke-linejoin="round" stroke-linecap="butt" d="m391.0 311.25592l10.015747 0l0 8.0l-10.015747 0z" fill-rule="nonzero"></path><path fill="#ffff00" d="m505.5118 311.25592l10.015778 0l0 8.0l-10.015778 0z" fill-rule="nonzero"></path><path stroke="#ff0000" stroke-width="1.0" stroke-linejoin="round" stroke-linecap="butt" d="m505.5118 311.25592l10.015778 0l0 8.0l-10.015778 0z" fill-rule="nonzero"></path><path fill="#ffff00" d="m390.9987 377.74802l10.015747 0l0 8.0l-10.015747 0z" fill-rule="nonzero"></path><path stroke="#ff0000" stroke-width="1.0" stroke-linejoin="round" stroke-linecap="butt" d="m390.9987 377.74802l10.015747 0l0 8.0l-10.015747 0z" fill-rule="nonzero"></path><path fill="#000000" fill-opacity="0.0" d="m514.27295 363.24408l61.007874 0l0 37.007904l-61.007874 0z" fill-rule="nonzero"></path><path fill="#000000" d="m523.8042 391.05472l1.703125 0.15625q-0.015625 0.578125 0.140625 0.859375q0.15625 0.296875 0.5 0.453125q0.453125 0.203125 1.171875 0.203125q1.53125 0 2.203125 -0.796875q0.4375 -0.515625 0.796875 -2.296875l0.171875 -0.796875q-1.3125 1.328125 -2.78125 1.328125q-1.5 0 -2.515625 -1.09375q-1.0 -1.109375 -1.0 -3.125q0 -1.65625 0.796875 -3.046875q0.796875 -1.390625 1.890625 -2.09375q1.09375 -0.71875 2.25 -0.71875q1.9375 0 2.984375 1.84375l0.34375 -1.625l1.53125 0l-1.984375 9.515625q-0.3125 1.5625 -0.84375 2.4375q-0.53125 0.890625 -1.484375 1.359375q-0.9375 0.484375 -2.171875 0.484375q-1.1875 0 -2.046875 -0.3125q-0.84375 -0.296875 -1.28125 -0.890625q-0.421875 -0.578125 -0.421875 -1.34375q0 -0.234375 0.046875 -0.5zm2.109375 -5.25q0 1.015625 0.1875 1.515625q0.28125 0.71875 0.796875 1.09375q0.515625 0.375 1.140625 0.375q0.828125 0 1.640625 -0.578125q0.828125 -0.578125 1.328125 -1.796875q0.5 -1.21875 0.5 -2.3125q0 -1.21875 -0.671875 -1.9375q-0.671875 -0.71875 -1.65625 -0.71875q-0.625 0 -1.203125 0.328125q-0.5625 0.328125 -1.0625 1.0q-0.5 0.671875 -0.75 1.609375q-0.25 0.9375 -0.25 1.421875zm8.360107 4.359375l2.0625 -9.859375l1.484375 0l-0.421875 2.015625q0.765625 -1.140625 1.484375 -1.6875q0.734375 -0.546875 1.5 -0.546875q0.5 0 1.234375 0.359375l-0.6875 1.5625q-0.4375 -0.3125 -0.953125 -0.3125q-0.875 0 -1.8125 0.984375q-0.921875 0.984375 -1.453125 3.53125l-0.828125 3.953125l-1.609375 0zm8.6033325 -11.703125l0.40625 -1.890625l1.65625 0l-0.390625 1.890625l-1.671875 0zm-2.453125 11.703125l2.0625 -9.859375l1.6875 0l-2.0625 9.859375l-1.6875 0zm3.3947754 3.78125l2.84375 -13.640625l1.546875 0l-0.28125 1.375q0.859375 -0.890625 1.53125 -1.234375q0.6875 -0.359375 1.453125 -0.359375q1.40625 0 2.328125 1.03125q0.9375 1.015625 0.9375 2.9375q0 1.53125 -0.515625 2.796875q-0.515625 1.265625 -1.265625 2.046875q-0.734375 0.765625 -1.5 1.125q-0.75 0.359375 -1.546875 0.359375q-1.765625 0 -2.75 -1.796875l-1.109375 5.359375l-1.671875 0zm3.3125 -7.8125q0 1.109375 0.15625 1.53125q0.234375 0.609375 0.765625 0.984375q0.53125 0.359375 1.21875 0.359375q1.453125 0 2.34375 -1.625q0.890625 -1.625 0.890625 -3.328125q0 -1.25 -0.609375 -1.921875q-0.59375 -0.6875 -1.484375 -0.6875q-0.640625 0 -1.1875 0.34375q-0.546875 0.328125 -1.015625 1.0q-0.46875 0.671875 -0.78125 1.65625q-0.296875 0.96875 -0.296875 1.6875zm8.031982 0.65625l1.6875 -0.09375q0 0.71875 0.21875 1.234375q0.21875 0.515625 0.8125 0.84375q0.609375 0.3125 1.40625 0.3125q1.109375 0 1.671875 -0.4375q0.5625 -0.453125 0.5625 -1.046875q0 -0.4375 -0.34375 -0.828125q-0.34375 -0.390625 -1.671875 -0.953125q-1.328125 -0.578125 -1.703125 -0.8125q-0.625 -0.375 -0.9375 -0.890625q-0.3125 -0.515625 -0.3125 -1.1875q0 -1.171875 0.921875 -2.0q0.9375 -0.84375 2.609375 -0.84375q1.84375 0 2.8125 0.859375q0.96875 0.859375 1.015625 2.265625l-1.640625 0.109375q-0.046875 -0.890625 -0.640625 -1.40625q-0.59375 -0.53125 -1.671875 -0.53125q-0.875 0 -1.359375 0.40625q-0.484375 0.390625 -0.484375 0.859375q0 0.46875 0.421875 0.8125q0.28125 0.25 1.4375 0.75q1.9375 0.828125 2.4375 1.3125q0.796875 0.765625 0.796875 1.875q0 0.734375 -0.453125 1.4375q-0.453125 0.703125 -1.375 1.125q-0.921875 0.421875 -2.171875 0.421875q-1.703125 0 -2.90625 -0.84375q-1.203125 -0.84375 -1.140625 -2.75z" fill-rule="nonzero"></path></g></svg>

